M48
INCH,TZ
T01C.016
;LEADER: 12 
;HEADER: 
;CODE  : ASCII 
;FILE  : DRILL-1-2.drl for board C:/Users/Bianca/Desktop/LAYOUT_FINAL/allegro/#Taaaada08424.tmp ... layers TOP and BOTTOM
;T01 Holesize 1. = 16.000000 Tolerance = +0.000000/-0.000000 PLATED MILS Quantity = 25
%
G90
T01
X7700Y29800
X28400Y96600
X27300Y112400
X44000Y128400
X43200Y109000
X63900Y103700
X52600Y81000
X47300Y81000
X60300Y65300
X42200Y62700
X56600Y53500
X53200Y43900
X79150Y25950
X60300Y20900
X84900Y13000
X83400Y39700
X94700Y65300
X87800Y91400
X103200Y108600
X88100Y112800
X85400Y118900
X88000Y133400
X129900Y113300
X129900Y100200
X133100Y81800
M30
