G04 ================== begin FILE IDENTIFICATION RECORD ==================*
G04 Layout Name:  C:/Users/Bianca/Desktop/LAYOUT_FINAL/allegro/STABILIZATOR_ERS.brd*
G04 Film Name:    FAB*
G04 File Format:  Gerber RS274X*
G04 File Origin:  Cadence Allegro 17.2-S025*
G04 Origin Date:  Fri Dec 08 20:06:12 2023*
G04 *
G04 Layer:  MANUFACTURING/NCDRILL_LEGEND*
G04 Layer:  MANUFACTURING/NCDRILL_FIGURE*
G04 Layer:  MANUFACTURING/XSECTION_CHART*
G04 Layer:  MANUFACTURING/NCLEGEND-1-2*
G04 Layer:  DRAWING FORMAT/OUTLINE*
G04 Layer:  BOARD GEOMETRY/OUTLINE*
G04 Layer:  BOARD GEOMETRY/DIMENSION*
G04 Layer:  BOARD GEOMETRY/DESIGN_OUTLINE*
G04 *
G04 Offset:    (0.00 0.00)*
G04 Mirror:    No*
G04 Mode:      Positive*
G04 Rotation:  0*
G04 FullContactRelief:  No*
G04 UndefLineWidth:     0.00*
G04 ================== end FILE IDENTIFICATION RECORD ====================*
%FSLAX25Y25*MOIN*%
%IR0*IPPOS*OFA0.00000B0.00000*MIA0B0*SFA1.00000B1.00000*%
%AMMACRO10*
1,1,0.0,.025,0.0*
20,1,0.0,.025,0.0,.02462,-.004341,0.0*
1,1,0.0,.02462,-.004341*
20,1,0.0,.02462,-.004341,.023492,-.008551,0.0*
1,1,0.0,.023492,-.008551*
20,1,0.0,.023492,-.008551,.021651,-.0125,0.0*
1,1,0.0,.021651,-.0125*
20,1,0.0,.021651,-.0125,.019151,-.01607,0.0*
1,1,0.0,.019151,-.01607*
20,1,0.0,.019151,-.01607,.01607,-.019151,0.0*
1,1,0.0,.01607,-.019151*
20,1,0.0,.01607,-.019151,.0125,-.021651,0.0*
1,1,0.0,.0125,-.021651*
20,1,0.0,.0125,-.021651,.008551,-.023492,0.0*
1,1,0.0,.008551,-.023492*
20,1,0.0,.008551,-.023492,.004341,-.02462,0.0*
1,1,0.0,.004341,-.02462*
20,1,0.0,.004341,-.02462,0.0,-.025,0.0*
1,1,0.0,0.0,-.025*
20,1,0.0,0.0,-.025,-.004341,-.02462,0.0*
1,1,0.0,-.004341,-.02462*
20,1,0.0,-.004341,-.02462,-.008551,-.023492,0.0*
1,1,0.0,-.008551,-.023492*
20,1,0.0,-.008551,-.023492,-.0125,-.021651,0.0*
1,1,0.0,-.0125,-.021651*
20,1,0.0,-.0125,-.021651,-.01607,-.019151,0.0*
1,1,0.0,-.01607,-.019151*
20,1,0.0,-.01607,-.019151,-.019151,-.01607,0.0*
1,1,0.0,-.019151,-.01607*
20,1,0.0,-.019151,-.01607,-.021651,-.0125,0.0*
1,1,0.0,-.021651,-.0125*
20,1,0.0,-.021651,-.0125,-.023492,-.008551,0.0*
1,1,0.0,-.023492,-.008551*
20,1,0.0,-.023492,-.008551,-.02462,-.004341,0.0*
1,1,0.0,-.02462,-.004341*
20,1,0.0,-.02462,-.004341,-.025,0.0,0.0*
1,1,0.0,-.025,0.0*
20,1,0.0,-.025,0.0,-.02462,.004341,0.0*
1,1,0.0,-.02462,.004341*
20,1,0.0,-.02462,.004341,-.023492,.008551,0.0*
1,1,0.0,-.023492,.008551*
20,1,0.0,-.023492,.008551,-.021651,.0125,0.0*
1,1,0.0,-.021651,.0125*
20,1,0.0,-.021651,.0125,-.019151,.01607,0.0*
1,1,0.0,-.019151,.01607*
20,1,0.0,-.019151,.01607,-.01607,.019151,0.0*
1,1,0.0,-.01607,.019151*
20,1,0.0,-.01607,.019151,-.0125,.021651,0.0*
1,1,0.0,-.0125,.021651*
20,1,0.0,-.0125,.021651,-.008551,.023492,0.0*
1,1,0.0,-.008551,.023492*
20,1,0.0,-.008551,.023492,-.004341,.02462,0.0*
1,1,0.0,-.004341,.02462*
20,1,0.0,-.004341,.02462,0.0,.025,0.0*
1,1,0.0,0.0,.025*
20,1,0.0,0.0,.025,.004341,.02462,0.0*
1,1,0.0,.004341,.02462*
20,1,0.0,.004341,.02462,.008551,.023492,0.0*
1,1,0.0,.008551,.023492*
20,1,0.0,.008551,.023492,.0125,.021651,0.0*
1,1,0.0,.0125,.021651*
20,1,0.0,.0125,.021651,.01607,.019151,0.0*
1,1,0.0,.01607,.019151*
20,1,0.0,.01607,.019151,.019151,.01607,0.0*
1,1,0.0,.019151,.01607*
20,1,0.0,.019151,.01607,.021651,.0125,0.0*
1,1,0.0,.021651,.0125*
20,1,0.0,.021651,.0125,.023492,.008551,0.0*
1,1,0.0,.023492,.008551*
20,1,0.0,.023492,.008551,.02462,.004341,0.0*
1,1,0.0,.02462,.004341*
20,1,0.0,.02462,.004341,.025,0.0,0.0*
1,1,0.0,.025,0.0*
1,1,0.0,.0125,0.0*
20,1,0.0,.0125,0.0,-.0125,0.0,0.0*
1,1,0.0,-.0125,0.0*
1,1,0.0,0.0,.0125*
20,1,0.0,0.0,.0125,0.0,-.0125,0.0*
1,1,0.0,0.0,-.0125*
%
%ADD10MACRO10*%
%ADD11C,.005*%
G75*
%LPD*%
G75*
G36*
G01X-101750Y199058D02*
Y194719D01*
X-99250D01*
Y4998D01*
X-101750D01*
Y659D01*
X-86750D01*
Y4998D01*
X-89250D01*
Y194719D01*
X-86750D01*
Y199058D01*
X-101750D01*
G37*
G36*
G01X-121750Y660D02*
Y4999D01*
X-61750D01*
Y660D01*
X-121750D01*
G37*
G36*
G01Y194719D02*
Y199058D01*
X-61750D01*
Y194719D01*
X-121750D01*
G37*
G54D10*
X7700Y29800D03*
X42200Y62700D03*
X47300Y81000D03*
X28400Y96600D03*
X27300Y112400D03*
X44000Y128400D03*
X43200Y109000D03*
X37200Y193250D03*
X79150Y25950D03*
X60300Y20900D03*
X53200Y43900D03*
X60300Y65300D03*
X56600Y53500D03*
X52600Y81000D03*
X63900Y103700D03*
X83400Y39700D03*
X84900Y13000D03*
X94700Y65300D03*
X87800Y91400D03*
X85400Y118900D03*
X103200Y108600D03*
X88100Y112800D03*
X88000Y133400D03*
X129900Y100200D03*
X133100Y81800D03*
X129900Y113300D03*
G54D11*
G01X-124837Y-9490D02*
Y-6790D01*
X-124303D01*
X-124090Y-6925D01*
X-123930Y-7105D01*
X-123797Y-7375D01*
X-123690Y-7690D01*
X-123663Y-8140D01*
X-123690Y-8590D01*
X-123797Y-8905D01*
X-123930Y-9175D01*
X-124090Y-9355D01*
X-124303Y-9490D01*
X-124837D01*
G01X-121117D02*
X-122183D01*
Y-6790D01*
X-121117D01*
G01X-121543Y-8095D02*
X-122183D01*
G01X-119610Y-9130D02*
X-119397Y-9355D01*
X-119157Y-9490D01*
X-118943D01*
X-118730Y-9355D01*
X-118570Y-9130D01*
X-118490Y-8815D01*
X-118543Y-8500D01*
X-118677Y-8230D01*
X-118917Y-8050D01*
X-119237Y-7960D01*
X-119423Y-7780D01*
X-119503Y-7465D01*
X-119450Y-7150D01*
X-119317Y-6925D01*
X-119130Y-6790D01*
X-118943D01*
X-118757Y-6880D01*
X-118597Y-7105D01*
G01X-116770Y-6790D02*
X-116130D01*
G01X-116450D02*
Y-9490D01*
G01X-116770D02*
X-116130D01*
G01X-113690Y-8140D02*
X-113157D01*
Y-8950D01*
X-113317Y-9220D01*
X-113503Y-9400D01*
X-113770Y-9490D01*
X-114037Y-9400D01*
X-114223Y-9220D01*
X-114383Y-8950D01*
X-114490Y-8635D01*
X-114543Y-8275D01*
Y-7960D01*
X-114490Y-7690D01*
X-114383Y-7375D01*
X-114223Y-7105D01*
X-114063Y-6925D01*
X-113850Y-6790D01*
X-113663D01*
X-113450Y-6880D01*
X-113290Y-7060D01*
G01X-111863Y-9490D02*
Y-6790D01*
X-110637Y-9490D01*
Y-6790D01*
G01X-105463Y-7015D02*
X-105623Y-6880D01*
X-105810Y-6790D01*
X-106023D01*
X-106263Y-6925D01*
X-106450Y-7150D01*
X-106583Y-7420D01*
X-106690Y-7870D01*
X-106717Y-8275D01*
X-106663Y-8680D01*
X-106583Y-8950D01*
X-106423Y-9220D01*
X-106237Y-9400D01*
X-106050Y-9490D01*
X-105863D01*
X-105677Y-9400D01*
X-105517Y-9265D01*
X-105383Y-9085D01*
G01X-103983Y-9490D02*
Y-6790D01*
X-103317D01*
X-103103Y-6925D01*
X-102970Y-7105D01*
X-102917Y-7465D01*
X-102970Y-7825D01*
X-103130Y-8050D01*
X-103317Y-8185D01*
X-103983D01*
G01X-103317D02*
X-102917Y-9490D01*
G01X-100850D02*
X-101063Y-9445D01*
X-101250Y-9265D01*
X-101410Y-8995D01*
X-101517Y-8680D01*
X-101570Y-8320D01*
Y-7960D01*
X-101517Y-7600D01*
X-101410Y-7285D01*
X-101250Y-7015D01*
X-101063Y-6835D01*
X-100850Y-6790D01*
X-100637Y-6835D01*
X-100450Y-7015D01*
X-100290Y-7285D01*
X-100183Y-7600D01*
X-100130Y-7960D01*
Y-8320D01*
X-100183Y-8680D01*
X-100290Y-8995D01*
X-100450Y-9265D01*
X-100637Y-9445D01*
X-100850Y-9490D01*
G01X-98810Y-9130D02*
X-98597Y-9355D01*
X-98357Y-9490D01*
X-98143D01*
X-97930Y-9355D01*
X-97770Y-9130D01*
X-97690Y-8815D01*
X-97743Y-8500D01*
X-97877Y-8230D01*
X-98117Y-8050D01*
X-98437Y-7960D01*
X-98623Y-7780D01*
X-98703Y-7465D01*
X-98650Y-7150D01*
X-98517Y-6925D01*
X-98330Y-6790D01*
X-98143D01*
X-97957Y-6880D01*
X-97797Y-7105D01*
G01X-96210Y-9130D02*
X-95997Y-9355D01*
X-95757Y-9490D01*
X-95543D01*
X-95330Y-9355D01*
X-95170Y-9130D01*
X-95090Y-8815D01*
X-95143Y-8500D01*
X-95277Y-8230D01*
X-95517Y-8050D01*
X-95837Y-7960D01*
X-96023Y-7780D01*
X-96103Y-7465D01*
X-96050Y-7150D01*
X-95917Y-6925D01*
X-95730Y-6790D01*
X-95543D01*
X-95357Y-6880D01*
X-95197Y-7105D01*
G01X-91010Y-9130D02*
X-90797Y-9355D01*
X-90557Y-9490D01*
X-90343D01*
X-90130Y-9355D01*
X-89970Y-9130D01*
X-89890Y-8815D01*
X-89943Y-8500D01*
X-90077Y-8230D01*
X-90317Y-8050D01*
X-90637Y-7960D01*
X-90823Y-7780D01*
X-90903Y-7465D01*
X-90850Y-7150D01*
X-90717Y-6925D01*
X-90530Y-6790D01*
X-90343D01*
X-90157Y-6880D01*
X-89997Y-7105D01*
G01X-87317Y-9490D02*
X-88383D01*
Y-6790D01*
X-87317D01*
G01X-87743Y-8095D02*
X-88383D01*
G01X-84663Y-7015D02*
X-84823Y-6880D01*
X-85010Y-6790D01*
X-85223D01*
X-85463Y-6925D01*
X-85650Y-7150D01*
X-85783Y-7420D01*
X-85890Y-7870D01*
X-85917Y-8275D01*
X-85863Y-8680D01*
X-85783Y-8950D01*
X-85623Y-9220D01*
X-85437Y-9400D01*
X-85250Y-9490D01*
X-85063D01*
X-84877Y-9400D01*
X-84717Y-9265D01*
X-84583Y-9085D01*
G01X-82650Y-6790D02*
Y-9490D01*
G01X-83263Y-6790D02*
X-82037D01*
G01X-80370D02*
X-79730D01*
G01X-80050D02*
Y-9490D01*
G01X-80370D02*
X-79730D01*
G01X-77450D02*
X-77663Y-9445D01*
X-77850Y-9265D01*
X-78010Y-8995D01*
X-78117Y-8680D01*
X-78170Y-8320D01*
Y-7960D01*
X-78117Y-7600D01*
X-78010Y-7285D01*
X-77850Y-7015D01*
X-77663Y-6835D01*
X-77450Y-6790D01*
X-77237Y-6835D01*
X-77050Y-7015D01*
X-76890Y-7285D01*
X-76783Y-7600D01*
X-76730Y-7960D01*
Y-8320D01*
X-76783Y-8680D01*
X-76890Y-8995D01*
X-77050Y-9265D01*
X-77237Y-9445D01*
X-77450Y-9490D01*
G01X-75463D02*
Y-6790D01*
X-74237Y-9490D01*
Y-6790D01*
G01X-69063Y-7015D02*
X-69223Y-6880D01*
X-69410Y-6790D01*
X-69623D01*
X-69863Y-6925D01*
X-70050Y-7150D01*
X-70183Y-7420D01*
X-70290Y-7870D01*
X-70317Y-8275D01*
X-70263Y-8680D01*
X-70183Y-8950D01*
X-70023Y-9220D01*
X-69837Y-9400D01*
X-69650Y-9490D01*
X-69463D01*
X-69277Y-9400D01*
X-69117Y-9265D01*
X-68983Y-9085D01*
G01X-67610Y-9490D02*
Y-6790D01*
G01X-66490D02*
Y-9490D01*
G01Y-8140D02*
X-67610D01*
G01X-65117Y-9490D02*
X-64450Y-6790D01*
X-63783Y-9490D01*
G01X-64023Y-8545D02*
X-64877D01*
G01X-62383Y-9490D02*
Y-6790D01*
X-61717D01*
X-61503Y-6925D01*
X-61370Y-7105D01*
X-61317Y-7465D01*
X-61370Y-7825D01*
X-61530Y-8050D01*
X-61717Y-8185D01*
X-62383D01*
G01X-61717D02*
X-61317Y-9490D01*
G01X-59250Y-6790D02*
Y-9490D01*
G01X-59863Y-6790D02*
X-58637D01*
G01X-126350Y-10390D02*
X-124750D01*
G01X-123750D02*
X-122150D01*
G01X-121150D02*
X-119550D01*
G01X-118550D02*
X-116950D01*
G01X-115950D02*
X-114350D01*
G01X-113350D02*
X-111750D01*
G01X-110750D02*
X-109150D01*
G01X-108150D02*
X-106550D01*
G01X-105550D02*
X-103950D01*
G01X-102950D02*
X-101350D01*
G01X-100350D02*
X-98750D01*
G01X-97750D02*
X-96150D01*
G01X-95150D02*
X-93550D01*
G01X-92550D02*
X-90950D01*
G01X-89950D02*
X-88350D01*
G01X-87350D02*
X-85750D01*
G01X-84750D02*
X-83150D01*
G01X-82150D02*
X-80550D01*
G01X-79550D02*
X-77950D01*
G01X-76950D02*
X-75350D01*
G01X-74350D02*
X-72750D01*
G01X-71750D02*
X-70150D01*
G01X-69150D02*
X-67550D01*
G01X-66550D02*
X-64950D01*
G01X-63950D02*
X-62350D01*
G01X-61350D02*
X-59750D01*
G01X-58750D02*
X-57150D01*
G01X-119050Y-11650D02*
Y-14350D01*
G01X-119663Y-11650D02*
X-118437D01*
G01X-116450Y-14350D02*
X-116663Y-14305D01*
X-116850Y-14125D01*
X-117010Y-13855D01*
X-117117Y-13540D01*
X-117170Y-13180D01*
Y-12820D01*
X-117117Y-12460D01*
X-117010Y-12145D01*
X-116850Y-11875D01*
X-116663Y-11695D01*
X-116450Y-11650D01*
X-116237Y-11695D01*
X-116050Y-11875D01*
X-115890Y-12145D01*
X-115783Y-12460D01*
X-115730Y-12820D01*
Y-13180D01*
X-115783Y-13540D01*
X-115890Y-13855D01*
X-116050Y-14125D01*
X-116237Y-14305D01*
X-116450Y-14350D01*
G01X-113850Y-11650D02*
Y-14350D01*
G01X-114463Y-11650D02*
X-113237D01*
G01X-111917Y-14350D02*
X-111250Y-11650D01*
X-110583Y-14350D01*
G01X-110823Y-13405D02*
X-111677D01*
G01X-109183Y-11650D02*
Y-14350D01*
X-108117D01*
G01X-103450Y-11650D02*
Y-14350D01*
G01X-104063Y-11650D02*
X-102837D01*
G01X-101410Y-14350D02*
Y-11650D01*
G01X-100290D02*
Y-14350D01*
G01Y-13000D02*
X-101410D01*
G01X-98570Y-11650D02*
X-97930D01*
G01X-98250D02*
Y-14350D01*
G01X-98570D02*
X-97930D01*
G01X-95063Y-11875D02*
X-95223Y-11740D01*
X-95410Y-11650D01*
X-95623D01*
X-95863Y-11785D01*
X-96050Y-12010D01*
X-96183Y-12280D01*
X-96290Y-12730D01*
X-96317Y-13135D01*
X-96263Y-13540D01*
X-96183Y-13810D01*
X-96023Y-14080D01*
X-95837Y-14260D01*
X-95650Y-14350D01*
X-95463D01*
X-95277Y-14260D01*
X-95117Y-14125D01*
X-94983Y-13945D01*
G01X-93637Y-14350D02*
Y-11650D01*
G01X-92623D02*
X-93637Y-13315D01*
G01X-92463Y-14350D02*
X-93183Y-12550D01*
G01X-91063Y-14350D02*
Y-11650D01*
X-89837Y-14350D01*
Y-11650D01*
G01X-87317Y-14350D02*
X-88383D01*
Y-11650D01*
X-87317D01*
G01X-87743Y-12955D02*
X-88383D01*
G01X-85810Y-13990D02*
X-85597Y-14215D01*
X-85357Y-14350D01*
X-85143D01*
X-84930Y-14215D01*
X-84770Y-13990D01*
X-84690Y-13675D01*
X-84743Y-13360D01*
X-84877Y-13090D01*
X-85117Y-12910D01*
X-85437Y-12820D01*
X-85623Y-12640D01*
X-85703Y-12325D01*
X-85650Y-12010D01*
X-85517Y-11785D01*
X-85330Y-11650D01*
X-85143D01*
X-84957Y-11740D01*
X-84797Y-11965D01*
G01X-83210Y-13990D02*
X-82997Y-14215D01*
X-82757Y-14350D01*
X-82543D01*
X-82330Y-14215D01*
X-82170Y-13990D01*
X-82090Y-13675D01*
X-82143Y-13360D01*
X-82277Y-13090D01*
X-82517Y-12910D01*
X-82837Y-12820D01*
X-83023Y-12640D01*
X-83103Y-12325D01*
X-83050Y-12010D01*
X-82917Y-11785D01*
X-82730Y-11650D01*
X-82543D01*
X-82357Y-11740D01*
X-82197Y-11965D01*
G01X-77957Y-13225D02*
X-77770Y-12910D01*
X-77610Y-12730D01*
X-77397Y-12640D01*
X-77210Y-12730D01*
X-77077Y-12910D01*
X-76970Y-13180D01*
X-76943Y-13495D01*
X-76970Y-13765D01*
X-77077Y-14035D01*
X-77237Y-14260D01*
X-77423Y-14350D01*
X-77637Y-14260D01*
X-77823Y-13990D01*
X-77930Y-13585D01*
X-77957Y-13135D01*
X-77903Y-12550D01*
X-77823Y-12235D01*
X-77690Y-11920D01*
X-77503Y-11695D01*
X-77317Y-11650D01*
X-77130Y-11740D01*
X-76997Y-11965D01*
G01X-74530Y-14350D02*
Y-11650D01*
X-75517Y-13585D01*
X-74183D01*
G01X-70343Y-14350D02*
Y-11650D01*
X-69650Y-13900D01*
X-68957Y-11650D01*
Y-14350D01*
G01X-67370Y-11650D02*
X-66730D01*
G01X-67050D02*
Y-14350D01*
G01X-67370D02*
X-66730D01*
G01X-64983Y-11650D02*
Y-14350D01*
X-63917D01*
G01X-94250Y202558D02*
X-96950D01*
X-96410Y202238D01*
G01X-94250D02*
Y202878D01*
G01X-95150Y204811D02*
Y205505D01*
G01X-96500Y207251D02*
X-96770Y207411D01*
X-96905Y207598D01*
X-96950Y207811D01*
X-96860Y208078D01*
X-96635Y208265D01*
X-96365Y208318D01*
X-96095Y208291D01*
X-95870Y208185D01*
X-95420Y207651D01*
X-95105Y207411D01*
X-94655Y207251D01*
X-94250Y207198D01*
Y208318D01*
G01X-58883Y4099D02*
Y1399D01*
X-57817D01*
G01X-56257Y3649D02*
X-56097Y3919D01*
X-55910Y4054D01*
X-55697Y4099D01*
X-55430Y4009D01*
X-55243Y3784D01*
X-55190Y3514D01*
X-55217Y3244D01*
X-55323Y3019D01*
X-55857Y2569D01*
X-56097Y2254D01*
X-56257Y1804D01*
X-56310Y1399D01*
X-55190D01*
G01X-50337Y2839D02*
X-50230Y2974D01*
X-50150Y3199D01*
X-50097Y3514D01*
X-50150Y3784D01*
X-50257Y3964D01*
X-50443Y4099D01*
X-51163D01*
Y1399D01*
X-50283D01*
X-50097Y1579D01*
X-49990Y1849D01*
X-49937Y2164D01*
X-49990Y2479D01*
X-50150Y2749D01*
X-50337Y2839D01*
X-51163D01*
G01X-47950Y1399D02*
X-48163Y1444D01*
X-48350Y1624D01*
X-48510Y1894D01*
X-48617Y2209D01*
X-48670Y2569D01*
Y2929D01*
X-48617Y3289D01*
X-48510Y3604D01*
X-48350Y3874D01*
X-48163Y4054D01*
X-47950Y4099D01*
X-47737Y4054D01*
X-47550Y3874D01*
X-47390Y3604D01*
X-47283Y3289D01*
X-47230Y2929D01*
Y2569D01*
X-47283Y2209D01*
X-47390Y1894D01*
X-47550Y1624D01*
X-47737Y1444D01*
X-47950Y1399D01*
G01X-45350Y4099D02*
Y1399D01*
G01X-45963Y4099D02*
X-44737D01*
G01X-42750D02*
Y1399D01*
G01X-43363Y4099D02*
X-42137D01*
G01X-40150Y1399D02*
X-40363Y1444D01*
X-40550Y1624D01*
X-40710Y1894D01*
X-40817Y2209D01*
X-40870Y2569D01*
Y2929D01*
X-40817Y3289D01*
X-40710Y3604D01*
X-40550Y3874D01*
X-40363Y4054D01*
X-40150Y4099D01*
X-39937Y4054D01*
X-39750Y3874D01*
X-39590Y3604D01*
X-39483Y3289D01*
X-39430Y2929D01*
Y2569D01*
X-39483Y2209D01*
X-39590Y1894D01*
X-39750Y1624D01*
X-39937Y1444D01*
X-40150Y1399D01*
G01X-38243D02*
Y4099D01*
X-37550Y1849D01*
X-36857Y4099D01*
Y1399D01*
G01X-31763Y3874D02*
X-31923Y4009D01*
X-32110Y4099D01*
X-32323D01*
X-32563Y3964D01*
X-32750Y3739D01*
X-32883Y3469D01*
X-32990Y3019D01*
X-33017Y2614D01*
X-32963Y2209D01*
X-32883Y1939D01*
X-32723Y1669D01*
X-32537Y1489D01*
X-32350Y1399D01*
X-32163D01*
X-31977Y1489D01*
X-31817Y1624D01*
X-31683Y1804D01*
G01X-29750Y1399D02*
X-29963Y1444D01*
X-30150Y1624D01*
X-30310Y1894D01*
X-30417Y2209D01*
X-30470Y2569D01*
Y2929D01*
X-30417Y3289D01*
X-30310Y3604D01*
X-30150Y3874D01*
X-29963Y4054D01*
X-29750Y4099D01*
X-29537Y4054D01*
X-29350Y3874D01*
X-29190Y3604D01*
X-29083Y3289D01*
X-29030Y2929D01*
Y2569D01*
X-29083Y2209D01*
X-29190Y1894D01*
X-29350Y1624D01*
X-29537Y1444D01*
X-29750Y1399D01*
G01X-27763D02*
Y4099D01*
X-26537Y1399D01*
Y4099D01*
G01X-25137Y1399D02*
Y4099D01*
X-24603D01*
X-24390Y3964D01*
X-24230Y3784D01*
X-24097Y3514D01*
X-23990Y3199D01*
X-23963Y2749D01*
X-23990Y2299D01*
X-24097Y1984D01*
X-24230Y1714D01*
X-24390Y1534D01*
X-24603Y1399D01*
X-25137D01*
G01X-22537Y4099D02*
Y2164D01*
X-22430Y1759D01*
X-22217Y1489D01*
X-21950Y1399D01*
X-21683Y1489D01*
X-21470Y1759D01*
X-21363Y2164D01*
Y4099D01*
G01X-18763Y3874D02*
X-18923Y4009D01*
X-19110Y4099D01*
X-19323D01*
X-19563Y3964D01*
X-19750Y3739D01*
X-19883Y3469D01*
X-19990Y3019D01*
X-20017Y2614D01*
X-19963Y2209D01*
X-19883Y1939D01*
X-19723Y1669D01*
X-19537Y1489D01*
X-19350Y1399D01*
X-19163D01*
X-18977Y1489D01*
X-18817Y1624D01*
X-18683Y1804D01*
G01X-16750Y4099D02*
Y1399D01*
G01X-17363Y4099D02*
X-16137D01*
G01X-14150Y1399D02*
X-14363Y1444D01*
X-14550Y1624D01*
X-14710Y1894D01*
X-14817Y2209D01*
X-14870Y2569D01*
Y2929D01*
X-14817Y3289D01*
X-14710Y3604D01*
X-14550Y3874D01*
X-14363Y4054D01*
X-14150Y4099D01*
X-13937Y4054D01*
X-13750Y3874D01*
X-13590Y3604D01*
X-13483Y3289D01*
X-13430Y2929D01*
Y2569D01*
X-13483Y2209D01*
X-13590Y1894D01*
X-13750Y1624D01*
X-13937Y1444D01*
X-14150Y1399D01*
G01X-12083D02*
Y4099D01*
X-11417D01*
X-11203Y3964D01*
X-11070Y3784D01*
X-11017Y3424D01*
X-11070Y3064D01*
X-11230Y2839D01*
X-11417Y2704D01*
X-12083D01*
G01X-11417D02*
X-11017Y1399D01*
G01X-53737Y-3030D02*
X-52563Y-1050D01*
G01X-53150Y-690D02*
Y-3390D01*
G01X-52563Y-3030D02*
X-53737Y-1050D01*
G01X-53950Y-2040D02*
X-52350D01*
G01X-45910Y-2580D02*
X-45697Y-2805D01*
X-45457Y-2940D01*
X-45243D01*
X-45030Y-2805D01*
X-44870Y-2580D01*
X-44790Y-2265D01*
X-44843Y-1950D01*
X-44977Y-1680D01*
X-45217Y-1500D01*
X-45537Y-1410D01*
X-45723Y-1230D01*
X-45803Y-915D01*
X-45750Y-600D01*
X-45617Y-375D01*
X-45430Y-240D01*
X-45243D01*
X-45057Y-330D01*
X-44897Y-555D01*
G01X-43337Y-240D02*
Y-2175D01*
X-43230Y-2580D01*
X-43017Y-2850D01*
X-42750Y-2940D01*
X-42483Y-2850D01*
X-42270Y-2580D01*
X-42163Y-2175D01*
Y-240D01*
G01X-40683Y-2940D02*
Y-240D01*
X-40017D01*
X-39803Y-375D01*
X-39670Y-555D01*
X-39617Y-915D01*
X-39670Y-1275D01*
X-39830Y-1500D01*
X-40017Y-1635D01*
X-40683D01*
G01X-40017D02*
X-39617Y-2940D01*
G01X-38057D02*
Y-240D01*
X-37043D01*
G01X-37417Y-1545D02*
X-38057D01*
G01X-35617Y-2940D02*
X-34950Y-240D01*
X-34283Y-2940D01*
G01X-34523Y-1995D02*
X-35377D01*
G01X-31763Y-465D02*
X-31923Y-330D01*
X-32110Y-240D01*
X-32323D01*
X-32563Y-375D01*
X-32750Y-600D01*
X-32883Y-870D01*
X-32990Y-1320D01*
X-33017Y-1725D01*
X-32963Y-2130D01*
X-32883Y-2400D01*
X-32723Y-2670D01*
X-32537Y-2850D01*
X-32350Y-2940D01*
X-32163D01*
X-31977Y-2850D01*
X-31817Y-2715D01*
X-31683Y-2535D01*
G01X-29217Y-2940D02*
X-30283D01*
Y-240D01*
X-29217D01*
G01X-29643Y-1545D02*
X-30283D01*
G01X-53737Y99769D02*
X-52563Y101749D01*
G01X-53150Y102109D02*
Y99409D01*
G01X-52563Y99769D02*
X-53737Y101749D01*
G01X-53950Y100759D02*
X-52350D01*
G01X-45937Y99859D02*
Y102559D01*
X-45403D01*
X-45190Y102424D01*
X-45030Y102244D01*
X-44897Y101974D01*
X-44790Y101659D01*
X-44763Y101209D01*
X-44790Y100759D01*
X-44897Y100444D01*
X-45030Y100174D01*
X-45190Y99994D01*
X-45403Y99859D01*
X-45937D01*
G01X-43070Y102559D02*
X-42430D01*
G01X-42750D02*
Y99859D01*
G01X-43070D02*
X-42430D01*
G01X-39617D02*
X-40683D01*
Y102559D01*
X-39617D01*
G01X-40043Y101254D02*
X-40683D01*
G01X-38083Y102559D02*
Y99859D01*
X-37017D01*
G01X-34417D02*
X-35483D01*
Y102559D01*
X-34417D01*
G01X-34843Y101254D02*
X-35483D01*
G01X-31763Y102334D02*
X-31923Y102469D01*
X-32110Y102559D01*
X-32323D01*
X-32563Y102424D01*
X-32750Y102199D01*
X-32883Y101929D01*
X-32990Y101479D01*
X-33017Y101074D01*
X-32963Y100669D01*
X-32883Y100399D01*
X-32723Y100129D01*
X-32537Y99949D01*
X-32350Y99859D01*
X-32163D01*
X-31977Y99949D01*
X-31817Y100084D01*
X-31683Y100264D01*
G01X-29750Y102559D02*
Y99859D01*
G01X-30363Y102559D02*
X-29137D01*
G01X-27683Y99859D02*
Y102559D01*
X-27017D01*
X-26803Y102424D01*
X-26670Y102244D01*
X-26617Y101884D01*
X-26670Y101524D01*
X-26830Y101299D01*
X-27017Y101164D01*
X-27683D01*
G01X-27017D02*
X-26617Y99859D01*
G01X-24870Y102559D02*
X-24230D01*
G01X-24550D02*
Y99859D01*
G01X-24870D02*
X-24230D01*
G01X-21363Y102334D02*
X-21523Y102469D01*
X-21710Y102559D01*
X-21923D01*
X-22163Y102424D01*
X-22350Y102199D01*
X-22483Y101929D01*
X-22590Y101479D01*
X-22617Y101074D01*
X-22563Y100669D01*
X-22483Y100399D01*
X-22323Y100129D01*
X-22137Y99949D01*
X-21950Y99859D01*
X-21763D01*
X-21577Y99949D01*
X-21417Y100084D01*
X-21283Y100264D01*
G01X-53737Y199868D02*
X-52563Y201848D01*
G01X-53150Y202208D02*
Y199508D01*
G01X-52563Y199868D02*
X-53737Y201848D01*
G01X-53950Y200858D02*
X-52350D01*
G01X-45910Y200318D02*
X-45697Y200093D01*
X-45457Y199958D01*
X-45243D01*
X-45030Y200093D01*
X-44870Y200318D01*
X-44790Y200633D01*
X-44843Y200948D01*
X-44977Y201218D01*
X-45217Y201398D01*
X-45537Y201488D01*
X-45723Y201668D01*
X-45803Y201983D01*
X-45750Y202298D01*
X-45617Y202523D01*
X-45430Y202658D01*
X-45243D01*
X-45057Y202568D01*
X-44897Y202343D01*
G01X-43337Y202658D02*
Y200723D01*
X-43230Y200318D01*
X-43017Y200048D01*
X-42750Y199958D01*
X-42483Y200048D01*
X-42270Y200318D01*
X-42163Y200723D01*
Y202658D01*
G01X-40683Y199958D02*
Y202658D01*
X-40017D01*
X-39803Y202523D01*
X-39670Y202343D01*
X-39617Y201983D01*
X-39670Y201623D01*
X-39830Y201398D01*
X-40017Y201263D01*
X-40683D01*
G01X-40017D02*
X-39617Y199958D01*
G01X-38057D02*
Y202658D01*
X-37043D01*
G01X-37417Y201353D02*
X-38057D01*
G01X-35617Y199958D02*
X-34950Y202658D01*
X-34283Y199958D01*
G01X-34523Y200903D02*
X-35377D01*
G01X-31763Y202433D02*
X-31923Y202568D01*
X-32110Y202658D01*
X-32323D01*
X-32563Y202523D01*
X-32750Y202298D01*
X-32883Y202028D01*
X-32990Y201578D01*
X-33017Y201173D01*
X-32963Y200768D01*
X-32883Y200498D01*
X-32723Y200228D01*
X-32537Y200048D01*
X-32350Y199958D01*
X-32163D01*
X-31977Y200048D01*
X-31817Y200183D01*
X-31683Y200363D01*
G01X-29217Y199958D02*
X-30283D01*
Y202658D01*
X-29217D01*
G01X-29643Y201353D02*
X-30283D01*
G01X-58883Y198158D02*
Y195458D01*
X-57817D01*
G01X-55750D02*
Y198158D01*
X-56070Y197618D01*
G01Y195458D02*
X-55430D01*
G01X-50550Y198158D02*
Y195458D01*
G01X-51163Y198158D02*
X-49937D01*
G01X-47950Y195458D02*
X-48163Y195503D01*
X-48350Y195683D01*
X-48510Y195953D01*
X-48617Y196268D01*
X-48670Y196628D01*
Y196988D01*
X-48617Y197348D01*
X-48510Y197663D01*
X-48350Y197933D01*
X-48163Y198113D01*
X-47950Y198158D01*
X-47737Y198113D01*
X-47550Y197933D01*
X-47390Y197663D01*
X-47283Y197348D01*
X-47230Y196988D01*
Y196628D01*
X-47283Y196268D01*
X-47390Y195953D01*
X-47550Y195683D01*
X-47737Y195503D01*
X-47950Y195458D01*
G01X-45883D02*
Y198158D01*
X-45243D01*
X-45030Y198023D01*
X-44870Y197708D01*
X-44817Y197348D01*
X-44870Y196988D01*
X-45003Y196718D01*
X-45243Y196583D01*
X-45883D01*
G01X-39563Y197933D02*
X-39723Y198068D01*
X-39910Y198158D01*
X-40123D01*
X-40363Y198023D01*
X-40550Y197798D01*
X-40683Y197528D01*
X-40790Y197078D01*
X-40817Y196673D01*
X-40763Y196268D01*
X-40683Y195998D01*
X-40523Y195728D01*
X-40337Y195548D01*
X-40150Y195458D01*
X-39963D01*
X-39777Y195548D01*
X-39617Y195683D01*
X-39483Y195863D01*
G01X-37550Y195458D02*
X-37763Y195503D01*
X-37950Y195683D01*
X-38110Y195953D01*
X-38217Y196268D01*
X-38270Y196628D01*
Y196988D01*
X-38217Y197348D01*
X-38110Y197663D01*
X-37950Y197933D01*
X-37763Y198113D01*
X-37550Y198158D01*
X-37337Y198113D01*
X-37150Y197933D01*
X-36990Y197663D01*
X-36883Y197348D01*
X-36830Y196988D01*
Y196628D01*
X-36883Y196268D01*
X-36990Y195953D01*
X-37150Y195683D01*
X-37337Y195503D01*
X-37550Y195458D01*
G01X-35563D02*
Y198158D01*
X-34337Y195458D01*
Y198158D01*
G01X-32937Y195458D02*
Y198158D01*
X-32403D01*
X-32190Y198023D01*
X-32030Y197843D01*
X-31897Y197573D01*
X-31790Y197258D01*
X-31763Y196808D01*
X-31790Y196358D01*
X-31897Y196043D01*
X-32030Y195773D01*
X-32190Y195593D01*
X-32403Y195458D01*
X-32937D01*
G01X-30337Y198158D02*
Y196223D01*
X-30230Y195818D01*
X-30017Y195548D01*
X-29750Y195458D01*
X-29483Y195548D01*
X-29270Y195818D01*
X-29163Y196223D01*
Y198158D01*
G01X-26563Y197933D02*
X-26723Y198068D01*
X-26910Y198158D01*
X-27123D01*
X-27363Y198023D01*
X-27550Y197798D01*
X-27683Y197528D01*
X-27790Y197078D01*
X-27817Y196673D01*
X-27763Y196268D01*
X-27683Y195998D01*
X-27523Y195728D01*
X-27337Y195548D01*
X-27150Y195458D01*
X-26963D01*
X-26777Y195548D01*
X-26617Y195683D01*
X-26483Y195863D01*
G01X-24550Y198158D02*
Y195458D01*
G01X-25163Y198158D02*
X-23937D01*
G01X-21950Y195458D02*
X-22163Y195503D01*
X-22350Y195683D01*
X-22510Y195953D01*
X-22617Y196268D01*
X-22670Y196628D01*
Y196988D01*
X-22617Y197348D01*
X-22510Y197663D01*
X-22350Y197933D01*
X-22163Y198113D01*
X-21950Y198158D01*
X-21737Y198113D01*
X-21550Y197933D01*
X-21390Y197663D01*
X-21283Y197348D01*
X-21230Y196988D01*
Y196628D01*
X-21283Y196268D01*
X-21390Y195953D01*
X-21550Y195683D01*
X-21737Y195503D01*
X-21950Y195458D01*
G01X-19883D02*
Y198158D01*
X-19217D01*
X-19003Y198023D01*
X-18870Y197843D01*
X-18817Y197483D01*
X-18870Y197123D01*
X-19030Y196898D01*
X-19217Y196763D01*
X-19883D01*
G01X-19217D02*
X-18817Y195458D01*
G01X30193Y198350D02*
Y201050D01*
X31207D01*
G01X30833Y199745D02*
X30193D01*
G01X32980Y201050D02*
X33620D01*
G01X33300D02*
Y198350D01*
G01X32980D02*
X33620D01*
G01X36060Y199700D02*
X36593D01*
Y198890D01*
X36433Y198620D01*
X36247Y198440D01*
X35980Y198350D01*
X35713Y198440D01*
X35527Y198620D01*
X35367Y198890D01*
X35260Y199205D01*
X35207Y199565D01*
Y199880D01*
X35260Y200150D01*
X35367Y200465D01*
X35527Y200735D01*
X35687Y200915D01*
X35900Y201050D01*
X36087D01*
X36300Y200960D01*
X36460Y200780D01*
G01X37913Y201050D02*
Y199115D01*
X38020Y198710D01*
X38233Y198440D01*
X38500Y198350D01*
X38767Y198440D01*
X38980Y198710D01*
X39087Y199115D01*
Y201050D01*
G01X40567Y198350D02*
Y201050D01*
X41233D01*
X41447Y200915D01*
X41580Y200735D01*
X41633Y200375D01*
X41580Y200015D01*
X41420Y199790D01*
X41233Y199655D01*
X40567D01*
G01X41233D02*
X41633Y198350D01*
G01X44233D02*
X43167D01*
Y201050D01*
X44233D01*
G01X43807Y199745D02*
X43167D01*
G01X49413Y218900D02*
Y221600D01*
X49947D01*
X50160Y221465D01*
X50320Y221285D01*
X50453Y221015D01*
X50560Y220700D01*
X50587Y220250D01*
X50560Y219800D01*
X50453Y219485D01*
X50320Y219215D01*
X50160Y219035D01*
X49947Y218900D01*
X49413D01*
G01X52067D02*
Y221600D01*
X52733D01*
X52947Y221465D01*
X53080Y221285D01*
X53133Y220925D01*
X53080Y220565D01*
X52920Y220340D01*
X52733Y220205D01*
X52067D01*
G01X52733D02*
X53133Y218900D01*
G01X54880Y221600D02*
X55520D01*
G01X55200D02*
Y218900D01*
G01X54880D02*
X55520D01*
G01X57267Y221600D02*
Y218900D01*
X58333D01*
G01X59867Y221600D02*
Y218900D01*
X60933D01*
G01X66187Y221375D02*
X66027Y221510D01*
X65840Y221600D01*
X65627D01*
X65387Y221465D01*
X65200Y221240D01*
X65067Y220970D01*
X64960Y220520D01*
X64933Y220115D01*
X64987Y219710D01*
X65067Y219440D01*
X65227Y219170D01*
X65413Y218990D01*
X65600Y218900D01*
X65787D01*
X65973Y218990D01*
X66133Y219125D01*
X66267Y219305D01*
G01X67640Y218900D02*
Y221600D01*
G01X68760D02*
Y218900D01*
G01Y220250D02*
X67640D01*
G01X70133Y218900D02*
X70800Y221600D01*
X71467Y218900D01*
G01X71227Y219845D02*
X70373D01*
G01X72867Y218900D02*
Y221600D01*
X73533D01*
X73747Y221465D01*
X73880Y221285D01*
X73933Y220925D01*
X73880Y220565D01*
X73720Y220340D01*
X73533Y220205D01*
X72867D01*
G01X73533D02*
X73933Y218900D01*
G01X76000Y221600D02*
Y218900D01*
G01X75387Y221600D02*
X76613D01*
G01X78600Y218810D02*
X78547Y218855D01*
Y218945D01*
X78600Y218990D01*
X78653Y218945D01*
Y218855D01*
X78600Y218810D01*
G01Y220025D02*
X78547Y220070D01*
Y220160D01*
X78600Y220205D01*
X78653Y220160D01*
Y220070D01*
X78600Y220025D01*
G01X83800Y221600D02*
Y218900D01*
G01X83187Y221600D02*
X84413D01*
G01X86400Y218900D02*
X86187Y218945D01*
X86000Y219125D01*
X85840Y219395D01*
X85733Y219710D01*
X85680Y220070D01*
Y220430D01*
X85733Y220790D01*
X85840Y221105D01*
X86000Y221375D01*
X86187Y221555D01*
X86400Y221600D01*
X86613Y221555D01*
X86800Y221375D01*
X86960Y221105D01*
X87067Y220790D01*
X87120Y220430D01*
Y220070D01*
X87067Y219710D01*
X86960Y219395D01*
X86800Y219125D01*
X86613Y218945D01*
X86400Y218900D01*
G01X88467D02*
Y221600D01*
X89107D01*
X89320Y221465D01*
X89480Y221150D01*
X89533Y220790D01*
X89480Y220430D01*
X89347Y220160D01*
X89107Y220025D01*
X88467D01*
G01X94200Y221600D02*
Y218900D01*
G01X93827Y220700D02*
X94573D01*
G01X96800Y218900D02*
X96640Y218945D01*
X96480Y219125D01*
X96373Y219440D01*
X96320Y219800D01*
X96373Y220160D01*
X96480Y220475D01*
X96640Y220655D01*
X96800Y220700D01*
X96960Y220655D01*
X97120Y220475D01*
X97227Y220160D01*
X97253Y219800D01*
X97227Y219440D01*
X97120Y219125D01*
X96960Y218945D01*
X96800Y218900D01*
G01X102213Y220340D02*
X102320Y220475D01*
X102400Y220700D01*
X102453Y221015D01*
X102400Y221285D01*
X102293Y221465D01*
X102107Y221600D01*
X101387D01*
Y218900D01*
X102267D01*
X102453Y219080D01*
X102560Y219350D01*
X102613Y219665D01*
X102560Y219980D01*
X102400Y220250D01*
X102213Y220340D01*
X101387D01*
G01X104600Y218900D02*
X104387Y218945D01*
X104200Y219125D01*
X104040Y219395D01*
X103933Y219710D01*
X103880Y220070D01*
Y220430D01*
X103933Y220790D01*
X104040Y221105D01*
X104200Y221375D01*
X104387Y221555D01*
X104600Y221600D01*
X104813Y221555D01*
X105000Y221375D01*
X105160Y221105D01*
X105267Y220790D01*
X105320Y220430D01*
Y220070D01*
X105267Y219710D01*
X105160Y219395D01*
X105000Y219125D01*
X104813Y218945D01*
X104600Y218900D01*
G01X107200Y221600D02*
Y218900D01*
G01X106587Y221600D02*
X107813D01*
G01X109800D02*
Y218900D01*
G01X109187Y221600D02*
X110413D01*
G01X112400Y218900D02*
X112187Y218945D01*
X112000Y219125D01*
X111840Y219395D01*
X111733Y219710D01*
X111680Y220070D01*
Y220430D01*
X111733Y220790D01*
X111840Y221105D01*
X112000Y221375D01*
X112187Y221555D01*
X112400Y221600D01*
X112613Y221555D01*
X112800Y221375D01*
X112960Y221105D01*
X113067Y220790D01*
X113120Y220430D01*
Y220070D01*
X113067Y219710D01*
X112960Y219395D01*
X112800Y219125D01*
X112613Y218945D01*
X112400Y218900D01*
G01X114307D02*
Y221600D01*
X115000Y219350D01*
X115693Y221600D01*
Y218900D01*
G01X53633Y203750D02*
X54300Y206450D01*
X54967Y203750D01*
G01X54727Y204695D02*
X53873D01*
G01X56367Y206450D02*
Y203750D01*
X57433D01*
G01X58967Y206450D02*
Y203750D01*
X60033D01*
G01X64113Y206450D02*
Y204515D01*
X64220Y204110D01*
X64433Y203840D01*
X64700Y203750D01*
X64967Y203840D01*
X65180Y204110D01*
X65287Y204515D01*
Y206450D01*
G01X66687Y203750D02*
Y206450D01*
X67913Y203750D01*
Y206450D01*
G01X69580D02*
X70220D01*
G01X69900D02*
Y203750D01*
G01X69580D02*
X70220D01*
G01X72500Y206450D02*
Y203750D01*
G01X71887Y206450D02*
X73113D01*
G01X74540Y204110D02*
X74753Y203885D01*
X74993Y203750D01*
X75207D01*
X75420Y203885D01*
X75580Y204110D01*
X75660Y204425D01*
X75607Y204740D01*
X75473Y205010D01*
X75233Y205190D01*
X74913Y205280D01*
X74727Y205460D01*
X74647Y205775D01*
X74700Y206090D01*
X74833Y206315D01*
X75020Y206450D01*
X75207D01*
X75393Y206360D01*
X75553Y206135D01*
G01X79633Y203750D02*
X80300Y206450D01*
X80967Y203750D01*
G01X80727Y204695D02*
X79873D01*
G01X82367Y203750D02*
Y206450D01*
X83033D01*
X83247Y206315D01*
X83380Y206135D01*
X83433Y205775D01*
X83380Y205415D01*
X83220Y205190D01*
X83033Y205055D01*
X82367D01*
G01X83033D02*
X83433Y203750D01*
G01X86033D02*
X84967D01*
Y206450D01*
X86033D01*
G01X85607Y205145D02*
X84967D01*
G01X90380Y206450D02*
X91020D01*
G01X90700D02*
Y203750D01*
G01X90380D02*
X91020D01*
G01X92687D02*
Y206450D01*
X93913Y203750D01*
Y206450D01*
G01X97807Y203750D02*
Y206450D01*
X98500Y204200D01*
X99193Y206450D01*
Y203750D01*
G01X100780Y206450D02*
X101420D01*
G01X101100D02*
Y203750D01*
G01X100780D02*
X101420D01*
G01X103167Y206450D02*
Y203750D01*
X104233D01*
G01X105740Y204110D02*
X105953Y203885D01*
X106193Y203750D01*
X106407D01*
X106620Y203885D01*
X106780Y204110D01*
X106860Y204425D01*
X106807Y204740D01*
X106673Y205010D01*
X106433Y205190D01*
X106113Y205280D01*
X105927Y205460D01*
X105847Y205775D01*
X105900Y206090D01*
X106033Y206315D01*
X106220Y206450D01*
X106407D01*
X106593Y206360D01*
X106753Y206135D01*
G01X51993Y198350D02*
Y201050D01*
X53007D01*
G01X52633Y199745D02*
X51993D01*
G01X54780Y201050D02*
X55420D01*
G01X55100D02*
Y198350D01*
G01X54780D02*
X55420D01*
G01X57087D02*
Y201050D01*
X58313Y198350D01*
Y201050D01*
G01X59980D02*
X60620D01*
G01X60300D02*
Y198350D01*
G01X59980D02*
X60620D01*
G01X62340Y198710D02*
X62553Y198485D01*
X62793Y198350D01*
X63007D01*
X63220Y198485D01*
X63380Y198710D01*
X63460Y199025D01*
X63407Y199340D01*
X63273Y199610D01*
X63033Y199790D01*
X62713Y199880D01*
X62527Y200060D01*
X62447Y200375D01*
X62500Y200690D01*
X62633Y200915D01*
X62820Y201050D01*
X63007D01*
X63193Y200960D01*
X63353Y200735D01*
G01X64940Y198350D02*
Y201050D01*
G01X66060D02*
Y198350D01*
G01Y199700D02*
X64940D01*
G01X68633Y198350D02*
X67567D01*
Y201050D01*
X68633D01*
G01X68207Y199745D02*
X67567D01*
G01X70113Y198350D02*
Y201050D01*
X70647D01*
X70860Y200915D01*
X71020Y200735D01*
X71153Y200465D01*
X71260Y200150D01*
X71287Y199700D01*
X71260Y199250D01*
X71153Y198935D01*
X71020Y198665D01*
X70860Y198485D01*
X70647Y198350D01*
X70113D01*
G01X72500Y197450D02*
X74100D01*
G01X75340Y198710D02*
X75553Y198485D01*
X75793Y198350D01*
X76007D01*
X76220Y198485D01*
X76380Y198710D01*
X76460Y199025D01*
X76407Y199340D01*
X76273Y199610D01*
X76033Y199790D01*
X75713Y199880D01*
X75527Y200060D01*
X75447Y200375D01*
X75500Y200690D01*
X75633Y200915D01*
X75820Y201050D01*
X76007D01*
X76193Y200960D01*
X76353Y200735D01*
G01X78180Y201050D02*
X78820D01*
G01X78500D02*
Y198350D01*
G01X78180D02*
X78820D01*
G01X80593Y201050D02*
X81607D01*
X80593Y198350D01*
X81607D01*
G01X84233D02*
X83167D01*
Y201050D01*
X84233D01*
G01X83807Y199745D02*
X83167D01*
G01X64200Y191900D02*
Y194600D01*
X63880Y194060D01*
G01Y191900D02*
X64520D01*
G01X66293Y193025D02*
X66480Y193340D01*
X66640Y193520D01*
X66853Y193610D01*
X67040Y193520D01*
X67173Y193340D01*
X67280Y193070D01*
X67307Y192755D01*
X67280Y192485D01*
X67173Y192215D01*
X67013Y191990D01*
X66827Y191900D01*
X66613Y191990D01*
X66427Y192260D01*
X66320Y192665D01*
X66293Y193115D01*
X66347Y193700D01*
X66427Y194015D01*
X66560Y194330D01*
X66747Y194555D01*
X66933Y194600D01*
X67120Y194510D01*
X67253Y194285D01*
G01X69400Y191810D02*
X69347Y191855D01*
Y191945D01*
X69400Y191990D01*
X69453Y191945D01*
Y191855D01*
X69400Y191810D01*
G01X72000Y194600D02*
X71787Y194510D01*
X71627Y194285D01*
X71520Y194015D01*
X71440Y193655D01*
X71413Y193250D01*
X71440Y192845D01*
X71520Y192485D01*
X71627Y192215D01*
X71787Y191990D01*
X72000Y191900D01*
X72213Y191990D01*
X72373Y192215D01*
X72480Y192485D01*
X72560Y192845D01*
X72587Y193250D01*
X72560Y193655D01*
X72480Y194015D01*
X72373Y194285D01*
X72213Y194510D01*
X72000Y194600D01*
G01X84300Y187100D02*
Y184400D01*
G01X83687Y187100D02*
X84913D01*
G01X86900Y184400D02*
X86687Y184445D01*
X86500Y184625D01*
X86340Y184895D01*
X86233Y185210D01*
X86180Y185570D01*
Y185930D01*
X86233Y186290D01*
X86340Y186605D01*
X86500Y186875D01*
X86687Y187055D01*
X86900Y187100D01*
X87113Y187055D01*
X87300Y186875D01*
X87460Y186605D01*
X87567Y186290D01*
X87620Y185930D01*
Y185570D01*
X87567Y185210D01*
X87460Y184895D01*
X87300Y184625D01*
X87113Y184445D01*
X86900Y184400D01*
G01X89500Y187100D02*
Y184400D01*
G01X88887Y187100D02*
X90113D01*
G01X91433Y184400D02*
X92100Y187100D01*
X92767Y184400D01*
G01X92527Y185345D02*
X91673D01*
G01X94167Y187100D02*
Y184400D01*
X95233D01*
G01X99340D02*
Y187100D01*
G01X100460D02*
Y184400D01*
G01Y185750D02*
X99340D01*
G01X102500Y184400D02*
X102287Y184445D01*
X102100Y184625D01*
X101940Y184895D01*
X101833Y185210D01*
X101780Y185570D01*
Y185930D01*
X101833Y186290D01*
X101940Y186605D01*
X102100Y186875D01*
X102287Y187055D01*
X102500Y187100D01*
X102713Y187055D01*
X102900Y186875D01*
X103060Y186605D01*
X103167Y186290D01*
X103220Y185930D01*
Y185570D01*
X103167Y185210D01*
X103060Y184895D01*
X102900Y184625D01*
X102713Y184445D01*
X102500Y184400D01*
G01X104567Y187100D02*
Y184400D01*
X105633D01*
G01X108233D02*
X107167D01*
Y187100D01*
X108233D01*
G01X107807Y185795D02*
X107167D01*
G01X109740Y184760D02*
X109953Y184535D01*
X110193Y184400D01*
X110407D01*
X110620Y184535D01*
X110780Y184760D01*
X110860Y185075D01*
X110807Y185390D01*
X110673Y185660D01*
X110433Y185840D01*
X110113Y185930D01*
X109927Y186110D01*
X109847Y186425D01*
X109900Y186740D01*
X110033Y186965D01*
X110220Y187100D01*
X110407D01*
X110593Y187010D01*
X110753Y186785D01*
G01X112900Y184310D02*
X112847Y184355D01*
Y184445D01*
X112900Y184490D01*
X112953Y184445D01*
Y184355D01*
X112900Y184310D01*
G01Y185525D02*
X112847Y185570D01*
Y185660D01*
X112900Y185705D01*
X112953Y185660D01*
Y185570D01*
X112900Y185525D01*
G01X82100Y172150D02*
Y174850D01*
X81780Y174310D01*
G01Y172150D02*
X82420D01*
G01X84700Y172060D02*
X84647Y172105D01*
Y172195D01*
X84700Y172240D01*
X84753Y172195D01*
Y172105D01*
X84700Y172060D01*
G01X86793Y173275D02*
X86980Y173590D01*
X87140Y173770D01*
X87353Y173860D01*
X87540Y173770D01*
X87673Y173590D01*
X87780Y173320D01*
X87807Y173005D01*
X87780Y172735D01*
X87673Y172465D01*
X87513Y172240D01*
X87327Y172150D01*
X87113Y172240D01*
X86927Y172510D01*
X86820Y172915D01*
X86793Y173365D01*
X86847Y173950D01*
X86927Y174265D01*
X87060Y174580D01*
X87247Y174805D01*
X87433Y174850D01*
X87620Y174760D01*
X87753Y174535D01*
G01X89900Y174850D02*
X89687Y174760D01*
X89527Y174535D01*
X89420Y174265D01*
X89340Y173905D01*
X89313Y173500D01*
X89340Y173095D01*
X89420Y172735D01*
X89527Y172465D01*
X89687Y172240D01*
X89900Y172150D01*
X90113Y172240D01*
X90273Y172465D01*
X90380Y172735D01*
X90460Y173095D01*
X90487Y173500D01*
X90460Y173905D01*
X90380Y174265D01*
X90273Y174535D01*
X90113Y174760D01*
X89900Y174850D01*
G01X95867Y198350D02*
Y201050D01*
X96507D01*
X96720Y200915D01*
X96880Y200600D01*
X96933Y200240D01*
X96880Y199880D01*
X96747Y199610D01*
X96507Y199475D01*
X95867D01*
G01X98467Y201050D02*
Y198350D01*
X99533D01*
G01X100933D02*
X101600Y201050D01*
X102267Y198350D01*
G01X102027Y199295D02*
X101173D01*
G01X104200Y201050D02*
Y198350D01*
G01X103587Y201050D02*
X104813D01*
G01X107333Y198350D02*
X106267D01*
Y201050D01*
X107333D01*
G01X106907Y199745D02*
X106267D01*
G01X108813Y198350D02*
Y201050D01*
X109347D01*
X109560Y200915D01*
X109720Y200735D01*
X109853Y200465D01*
X109960Y200150D01*
X109987Y199700D01*
X109960Y199250D01*
X109853Y198935D01*
X109720Y198665D01*
X109560Y198485D01*
X109347Y198350D01*
X108813D01*
G01X95867Y191900D02*
Y194600D01*
X96507D01*
X96720Y194465D01*
X96880Y194150D01*
X96933Y193790D01*
X96880Y193430D01*
X96747Y193160D01*
X96507Y193025D01*
X95867D01*
G01X98467Y194600D02*
Y191900D01*
X99533D01*
G01X100933D02*
X101600Y194600D01*
X102267Y191900D01*
G01X102027Y192845D02*
X101173D01*
G01X104200Y194600D02*
Y191900D01*
G01X103587Y194600D02*
X104813D01*
G01X107333Y191900D02*
X106267D01*
Y194600D01*
X107333D01*
G01X106907Y193295D02*
X106267D01*
G01X108813Y191900D02*
Y194600D01*
X109347D01*
X109560Y194465D01*
X109720Y194285D01*
X109853Y194015D01*
X109960Y193700D01*
X109987Y193250D01*
X109960Y192800D01*
X109853Y192485D01*
X109720Y192215D01*
X109560Y192035D01*
X109347Y191900D01*
X108813D01*
G01X122893Y186650D02*
X123053Y186920D01*
X123240Y187055D01*
X123453Y187100D01*
X123720Y187010D01*
X123907Y186785D01*
X123960Y186515D01*
X123933Y186245D01*
X123827Y186020D01*
X123293Y185570D01*
X123053Y185255D01*
X122893Y184805D01*
X122840Y184400D01*
X123960D01*
G01X125413Y184805D02*
X125573Y184580D01*
X125760Y184445D01*
X126000Y184400D01*
X126240Y184490D01*
X126427Y184670D01*
X126560Y184985D01*
X126587Y185345D01*
X126533Y185705D01*
X126400Y185930D01*
X126213Y186110D01*
X126027Y186155D01*
X125840Y186110D01*
X125600Y185930D01*
X125680Y187100D01*
X126400D01*
G01X122100Y198350D02*
X121887Y198395D01*
X121700Y198575D01*
X121540Y198845D01*
X121433Y199160D01*
X121380Y199520D01*
Y199880D01*
X121433Y200240D01*
X121540Y200555D01*
X121700Y200825D01*
X121887Y201005D01*
X122100Y201050D01*
X122313Y201005D01*
X122500Y200825D01*
X122660Y200555D01*
X122767Y200240D01*
X122820Y199880D01*
Y199520D01*
X122767Y199160D01*
X122660Y198845D01*
X122500Y198575D01*
X122313Y198395D01*
X122100Y198350D01*
G01X122313Y199070D02*
X122633Y198350D01*
G01X124700Y201050D02*
Y198350D01*
G01X124087Y201050D02*
X125313D01*
G01X127300Y198350D02*
Y199565D01*
X126767Y201050D01*
G01X127833D02*
X127300Y199565D01*
G01X122893Y194150D02*
X123053Y194420D01*
X123240Y194555D01*
X123453Y194600D01*
X123720Y194510D01*
X123907Y194285D01*
X123960Y194015D01*
X123933Y193745D01*
X123827Y193520D01*
X123293Y193070D01*
X123053Y192755D01*
X122893Y192305D01*
X122840Y191900D01*
X123960D01*
G01X125413Y192305D02*
X125573Y192080D01*
X125760Y191945D01*
X126000Y191900D01*
X126240Y191990D01*
X126427Y192170D01*
X126560Y192485D01*
X126587Y192845D01*
X126533Y193205D01*
X126400Y193430D01*
X126213Y193610D01*
X126027Y193655D01*
X125840Y193610D01*
X125600Y193430D01*
X125680Y194600D01*
X126400D01*
G01X173900Y83350D02*
Y86050D01*
X173580Y85510D01*
G01Y83350D02*
X174220D01*
G01X176500Y83260D02*
X176447Y83305D01*
Y83395D01*
X176500Y83440D01*
X176553Y83395D01*
Y83305D01*
X176500Y83260D01*
G01X178593Y84475D02*
X178780Y84790D01*
X178940Y84970D01*
X179153Y85060D01*
X179340Y84970D01*
X179473Y84790D01*
X179580Y84520D01*
X179607Y84205D01*
X179580Y83935D01*
X179473Y83665D01*
X179313Y83440D01*
X179127Y83350D01*
X178913Y83440D01*
X178727Y83710D01*
X178620Y84115D01*
X178593Y84565D01*
X178647Y85150D01*
X178727Y85465D01*
X178860Y85780D01*
X179047Y86005D01*
X179233Y86050D01*
X179420Y85960D01*
X179553Y85735D01*
G01X181700Y86050D02*
X181487Y85960D01*
X181327Y85735D01*
X181220Y85465D01*
X181140Y85105D01*
X181113Y84700D01*
X181140Y84295D01*
X181220Y83935D01*
X181327Y83665D01*
X181487Y83440D01*
X181700Y83350D01*
X181913Y83440D01*
X182073Y83665D01*
X182180Y83935D01*
X182260Y84295D01*
X182287Y84700D01*
X182260Y85105D01*
X182180Y85465D01*
X182073Y85735D01*
X181913Y85960D01*
X181700Y86050D01*
M02*
