G04 ================== begin FILE IDENTIFICATION RECORD ==================*
G04 Layout Name:  C:/Users/Bianca/Desktop/LAYOUT_FINAL/allegro/STABILIZATOR_ERS.brd*
G04 Film Name:    SMTOP*
G04 File Format:  Gerber RS274X*
G04 File Origin:  Cadence Allegro 17.2-S025*
G04 Origin Date:  Fri Dec 08 20:06:12 2023*
G04 *
G04 Layer:  VIA CLASS/SOLDERMASK_TOP*
G04 Layer:  PIN/SOLDERMASK_TOP*
G04 Layer:  PACKAGE GEOMETRY/SOLDERMASK_TOP*
G04 Layer:  DRC ERROR CLASS/SOLDERMASK_TOP*
G04 Layer:  BOARD GEOMETRY/SOLDERMASK_TOP*
G04 *
G04 Offset:    (0.00 0.00)*
G04 Mirror:    No*
G04 Mode:      Positive*
G04 Rotation:  0*
G04 FullContactRelief:  No*
G04 UndefLineWidth:     0.00*
G04 ================== end FILE IDENTIFICATION RECORD ====================*
%FSLAX25Y25*MOIN*%
%IR0*IPPOS*OFA0.00000B0.00000*MIA0B0*SFA1.00000B1.00000*%
%ADD19R,.09X.13*%
%ADD13C,.08*%
%ADD11C,.044*%
%ADD17C,.0415*%
%ADD10R,.06X.06*%
%ADD12R,.06118X.06118*%
%ADD21R,.07299X.12811*%
%ADD18R,.046X.06*%
%ADD15R,.06X.046*%
%ADD20R,.058X.086*%
%ADD22R,.23835X.25409*%
%ADD14R,.08874X.06118*%
%ADD16R,.06118X.08874*%
%LPD*%
G75*
G54D10*
X16100Y13200D03*
Y37200D03*
Y23800D03*
X13700Y52700D03*
X11600Y102200D03*
X20000D03*
X11700Y92100D03*
X20100D03*
X11600Y124200D03*
X20000D03*
Y113600D03*
X11600D03*
X24500Y13200D03*
Y37200D03*
Y23800D03*
X22100Y52700D03*
X36100D03*
X44500D03*
X35000Y103500D03*
X34500Y88500D03*
X42900D03*
X35000Y111900D03*
X67700Y13200D03*
X76100D03*
Y37600D03*
X67700D03*
Y61500D03*
X76100D03*
X67700Y51300D03*
X76100D03*
Y74700D03*
X67700D03*
X72300Y148100D03*
X94700Y133400D03*
X103100D03*
X80700Y148100D03*
X94500D03*
X102900D03*
X139400Y133200D03*
Y122100D03*
X115900Y148100D03*
X124300D03*
X149000Y29900D03*
X140600D03*
X149200Y63600D03*
X140800D03*
X149000Y46800D03*
X140600D03*
X140800Y81800D03*
X149200D03*
X147800Y133200D03*
Y122100D03*
G54D20*
X72300Y133400D03*
X80200D03*
G54D11*
X7700Y29800D03*
X42200Y62700D03*
X47300Y81000D03*
X28400Y96600D03*
X27300Y112400D03*
X44000Y128400D03*
X43200Y109000D03*
X79150Y25950D03*
X60300Y20900D03*
X53200Y43900D03*
X60300Y65300D03*
X56600Y53500D03*
X52600Y81000D03*
X63900Y103700D03*
X83400Y39700D03*
X84900Y13000D03*
X94700Y65300D03*
X87800Y91400D03*
X85400Y118900D03*
X103200Y108600D03*
X88100Y112800D03*
X88000Y133400D03*
X129900Y100200D03*
X133100Y81800D03*
X129900Y113300D03*
G54D21*
X106900Y47000D03*
X124892D03*
G54D12*
X13700Y65500D03*
Y74555D03*
X39545Y13200D03*
X48600D03*
G54D22*
X115876Y75307D03*
G54D13*
X20000Y140000D03*
X140000Y20000D03*
G54D14*
X44072Y35444D03*
G54D15*
X47300Y66900D03*
Y75100D03*
X55400Y71000D03*
X74000Y97500D03*
Y105700D03*
X89100Y71200D03*
X82100Y101600D03*
X97200Y75300D03*
X89100Y79400D03*
X103100Y117400D03*
X95000Y121500D03*
Y113300D03*
X112900Y101100D03*
X121000Y97000D03*
X113700Y117400D03*
X121800Y113300D03*
Y121500D03*
X121000Y105200D03*
G54D16*
X35944Y70028D03*
G54D17*
X20200Y84200D03*
G54D18*
X34500Y131500D03*
X30400Y123400D03*
X38600D03*
X54200Y103700D03*
X61100Y83300D03*
X65200Y91400D03*
X57000D03*
X54200Y122500D03*
X58300Y130600D03*
X50100D03*
X75900Y112800D03*
X71800Y120900D03*
X58300Y111800D03*
X50100D03*
X93700Y53600D03*
X89600Y45500D03*
X97800D03*
X99100Y93500D03*
X103200Y101600D03*
X95000D03*
X80000Y120900D03*
G54D19*
X34500Y143100D03*
X58100D03*
X93200Y24400D03*
X116800D03*
M02*
