G04 ================== begin FILE IDENTIFICATION RECORD ==================*
G04 Layout Name:  C:/Users/Bianca/Desktop/LAYOUT_FINAL/allegro/STABILIZATOR_ERS.brd*
G04 Film Name:    TOP*
G04 File Format:  Gerber RS274X*
G04 File Origin:  Cadence Allegro 17.2-S025*
G04 Origin Date:  Fri Dec 08 20:06:12 2023*
G04 *
G04 Layer:  ETCH/TOP*
G04 Layer:  PIN/TOP*
G04 Layer:  VIA CLASS/TOP*
G04 *
G04 Offset:    (0.00 0.00)*
G04 Mirror:    No*
G04 Mode:      Positive*
G04 Rotation:  0*
G04 FullContactRelief:  No*
G04 UndefLineWidth:     8.00*
G04 ================== end FILE IDENTIFICATION RECORD ====================*
%FSLAX25Y25*MOIN*%
%IR0*IPPOS*OFA0.00000B0.00000*MIA0B0*SFA1.00000B1.00000*%
%ADD19R,.08X.12*%
%ADD13C,.04*%
%ADD11C,.024*%
%ADD17C,.0315*%
%ADD10R,.05X.05*%
%ADD12R,.05118X.05118*%
%ADD21R,.06299X.11811*%
%ADD18R,.036X.05*%
%ADD15R,.05X.036*%
%ADD20R,.048X.076*%
%ADD22R,.22835X.24409*%
%ADD14R,.07874X.05118*%
%ADD16R,.05118X.07874*%
%ADD23C,.02*%
%ADD24C,.016*%
%ADD25C,.08004*%
G75*
%LPD*%
G75*
G36*
G01X4801Y4801D02*
Y28137D01*
G02X5534Y28358I400J0D01*
G03X9902Y31187I2166J1442D01*
G01Y48639D01*
G02X10501Y48985I400J-1D01*
G03X11200Y48798I700J1215D01*
G01X14919D01*
G02X15202Y48116I0J-400D01*
G01X13798Y46712D01*
Y41301D01*
G02X13599Y41101I-200J0D01*
G03X12198Y39700I0J-1401D01*
G01Y34700D01*
G03X13600Y33298I1402J0D01*
G01X18600D01*
G03X20002Y34700I0J1402D01*
G01Y39700D01*
G03X18600Y41102I-1402J0D01*
G01X18202D01*
Y44888D01*
X18512Y45198D01*
X43119D01*
G02X43402Y44516I0J-400D01*
G01X41898Y43012D01*
Y40243D01*
X41870Y40215D01*
Y39404D01*
X40135D01*
G03X38734Y38003I0J-1401D01*
G01Y32885D01*
G03X40135Y31484I1401J0D01*
G01X48009D01*
G03X49410Y32885I0J1401D01*
G01Y38003D01*
G03X48009Y39404I-1401J0D01*
G01X46302D01*
Y41188D01*
X46812Y41698D01*
X51813D01*
G03X51859Y46130I1387J2202D01*
G01X51812Y46102D01*
X51481D01*
G02X51198Y46784I0J400D01*
G01X52502Y48088D01*
Y58512D01*
X49502Y61512D01*
Y63698D01*
X49800D01*
G03X51202Y65100I0J1402D01*
G01Y67951D01*
G02X51890Y68229I400J1D01*
G03X52811Y67801I1011J971D01*
G02X52998Y67602I-13J-199D01*
G01Y66305D01*
X56405Y62898D01*
X57119D01*
G02X57402Y62216I0J-400D01*
G01X54398Y59212D01*
Y54887D01*
G03X55971Y50975I2202J-1387D01*
G01X56025Y50962D01*
X58098Y48888D01*
Y22287D01*
G03X61687Y18698I2202J-1387D01*
G01X68888D01*
X68988Y18598D01*
X83612D01*
X86502Y21488D01*
Y32988D01*
X86812Y33298D01*
X114288D01*
X114598Y32988D01*
Y31802D01*
X112800D01*
G03X111398Y30400I0J-1402D01*
G01Y18400D01*
G03X112800Y16998I1402J0D01*
G01X120800D01*
G03X122202Y18400I0J1402D01*
G01Y22198D01*
X126212D01*
X131712Y27698D01*
X136698D01*
Y27400D01*
G03X138100Y25998I1402J0D01*
G01X143100D01*
G03X144502Y27400I0J1402D01*
G01Y32400D01*
G03X143100Y33802I-1402J0D01*
G01X142802D01*
Y42898D01*
X143100D01*
G03X144502Y44300I0J1402D01*
G01Y49300D01*
G03X143100Y50702I-1402J0D01*
G01X138100D01*
G03X136698Y49300I0J-1402D01*
G01Y44300D01*
G03X138100Y42898I1402J0D01*
G01X138398D01*
Y33802D01*
X138100D01*
G03X136698Y32400I0J-1402D01*
G01Y32102D01*
X129888D01*
X124388Y26602D01*
X122202D01*
Y30400D01*
G03X120800Y31802I-1402J0D01*
G01X119002D01*
Y34812D01*
X116112Y37702D01*
X85941D01*
G02X85602Y38314I0J400D01*
G03Y41087I-2202J1387D01*
G01Y42988D01*
X85912Y43298D01*
X86398D01*
Y43000D01*
G03X87800Y41598I1402J0D01*
G01X91400D01*
G03X92802Y43000I0J1402D01*
G01Y48000D01*
G03X92371Y49010I-1402J-1D01*
G02X92649Y49698I277J288D01*
G01X95500D01*
G03X96902Y51100I0J1402D01*
G01Y56100D01*
G03X96546Y57032I-1401J-1D01*
G02X96845Y57698I299J266D01*
G01X102388D01*
X104698Y55388D01*
Y54307D01*
X103750D01*
G03X102349Y52906I1J-1402D01*
G01Y41094D01*
G03X103750Y39693I1402J0D01*
G01X110050D01*
G03X111451Y41094I-1J1402D01*
G01Y52906D01*
G03X110050Y54307I-1402J-1D01*
G01X109102D01*
Y57212D01*
X105295Y61018D01*
G02X105578Y61701I283J283D01*
G01X127294D01*
G03X128695Y63102I-1J1401D01*
G01Y87512D01*
G03X127294Y88913I-1402J-1D01*
G01X119051D01*
G02X118768Y89596I0J400D01*
G01X118871Y89698D01*
X142995D01*
X150202Y96905D01*
Y118002D01*
G02X150389Y118201I200J0D01*
G03X151702Y119600I-89J1399D01*
G01Y124600D01*
G03X150389Y125999I-1402J0D01*
G02X150202Y126198I13J199D01*
G01Y129102D01*
G02X150389Y129301I200J0D01*
G03X151702Y130700I-89J1399D01*
G01Y135700D01*
G03X150389Y137099I-1402J0D01*
G02X150202Y137298I13J199D01*
G01Y139095D01*
X146795Y142502D01*
X129805D01*
X123105Y135802D01*
X107011D01*
X106999Y135989D01*
G03X105689Y137299I-1399J-89D01*
G02X105502Y137498I13J199D01*
G01Y140995D01*
X102981Y143516D01*
G02X103263Y144198I283J282D01*
G01X105400D01*
G03X106802Y145600I0J1402D01*
G01Y145898D01*
X111998D01*
Y145600D01*
G03X113400Y144198I1402J0D01*
G01X118400D01*
G03X119802Y145600I0J1402D01*
G01Y150600D01*
G03X118400Y152002I-1402J0D01*
G01X113400D01*
G03X111998Y150600I0J-1402D01*
G01Y150302D01*
X106802D01*
Y150600D01*
G03X105400Y152002I-1402J0D01*
G01X100400D01*
G03X98998Y150600I0J-1402D01*
G01Y145600D01*
G03X99144Y144979I1402J2D01*
G02X98785Y144402I-359J-177D01*
G01X98615D01*
G02X98256Y144979I0J400D01*
G03X98402Y145600I-1256J623D01*
G01Y150600D01*
G03X97000Y152002I-1402J0D01*
G01X92000D01*
G03X90598Y150600I0J-1402D01*
G01Y150302D01*
X84602D01*
Y150600D01*
G03X83200Y152002I-1402J0D01*
G01X78200D01*
G03X76798Y150600I0J-1402D01*
G01Y145600D01*
G03X78200Y144198I1402J0D01*
G01X80037D01*
G02X80319Y143516I-1J-400D01*
G01X77798Y140995D01*
Y138602D01*
X74502D01*
Y144198D01*
X74800D01*
G03X76202Y145600I0J1402D01*
G01Y150600D01*
G03X74800Y152002I-1402J0D01*
G01X69800D01*
G03X68398Y150600I0J-1402D01*
G01Y145600D01*
G03X69800Y144198I1402J0D01*
G01X70098D01*
Y138802D01*
G02X69899Y138602I-200J0D01*
G03X68498Y137200I1J-1402D01*
G01Y129600D01*
G03X69900Y128198I1402J0D01*
G01X70919D01*
G02X71202Y127515I0J-400D01*
G01X69598Y125912D01*
Y124750D01*
X69474Y124699D01*
G03X68598Y123400I525J-1299D01*
G01Y123281D01*
G02X67916Y122998I-400J0D01*
G01X66212Y124702D01*
X57402D01*
Y125000D01*
G03X56000Y126402I-1402J0D01*
G01X53149D01*
G02X52871Y127090I-1J400D01*
G03X53302Y128100I-971J1011D01*
G01Y133100D01*
G03X51900Y134502I-1402J0D01*
G01X48300D01*
G03X46898Y133100I0J-1402D01*
G01Y130064D01*
G02X46166Y129842I-400J0D01*
G03X44990Y130806I-2166J-1442D01*
G01X41895Y133902D01*
X37711D01*
X37699Y134089D01*
G03X36902Y135266I-1399J-89D01*
G01Y135698D01*
X38500D01*
G03X39902Y137100I0J1402D01*
G01Y149100D01*
G03X38500Y150502I-1402J0D01*
G01X30500D01*
G03X29098Y149100I0J-1402D01*
G01Y137100D01*
G03X30500Y135698I1402J0D01*
G01X32098D01*
Y135266D01*
G03X31298Y134000I602J-1266D01*
G01Y129000D01*
G03X31729Y127990I1402J1D01*
G02X31451Y127302I-277J-288D01*
G01X28600D01*
G03X27823Y127067I0J-1402D01*
G02X27202Y127399I-221J333D01*
G01Y130812D01*
X24312Y133702D01*
X12288D01*
X9398Y130812D01*
Y128102D01*
X9100D01*
G03X7698Y126700I0J-1402D01*
G01Y121700D01*
G03X9100Y120298I1402J0D01*
G01X14100D01*
G03X15502Y121700I0J1402D01*
G01Y126700D01*
G03X14100Y128102I-1402J0D01*
G01X13802D01*
Y128988D01*
X14112Y129298D01*
X22488D01*
X22798Y128988D01*
Y128298D01*
G02X22586Y128099I-200J0D01*
G03X22500Y128102I-92J-1399D01*
G01X17500D01*
G03X16098Y126700I0J-1402D01*
G01Y121700D01*
G03X17500Y120298I1402J0D01*
G01X17798D01*
Y117502D01*
X17500D01*
G03X16098Y116100I0J-1402D01*
G01Y111100D01*
G03X17500Y109698I1402J0D01*
G01X22500D01*
G03X23902Y111100I0J1402D01*
G01Y116100D01*
G03X22500Y117502I-1402J0D01*
G01X22202D01*
Y120298D01*
X22500D01*
G03X23902Y121700I0J1402D01*
G01Y122019D01*
G02X24584Y122302I400J0D01*
G01X25688Y121198D01*
X27198D01*
Y120900D01*
G03X28074Y119601I1401J0D01*
G01X28198Y119550D01*
Y118912D01*
X25098Y115812D01*
Y113787D01*
G03X29530Y113741I2202J-1387D01*
G01X29502Y113788D01*
Y113988D01*
X32602Y117088D01*
Y119550D01*
X32726Y119601D01*
G03X33602Y120900I-525J1299D01*
G01Y125900D01*
G03X33171Y126910I-1402J-1D01*
G02X33449Y127598I277J288D01*
G01X35551D01*
G02X35829Y126910I1J-400D01*
G03X35398Y125900I971J-1011D01*
G01Y120900D01*
G03X36800Y119498I1402J0D01*
G01X40400D01*
G03X41802Y120900I0J1402D01*
G01Y125900D01*
G03X41799Y125977I-1401J-16D01*
G02X42439Y126318I399J21D01*
G03X46381Y127349I1561J2082D01*
G02X47091Y127390I366J-161D01*
G03X48300Y126698I1209J710D01*
G01X51151D01*
G02X51429Y126010I1J-400D01*
G03X50998Y125000I971J-1011D01*
G01Y124702D01*
X47588D01*
X40998Y118112D01*
Y110387D01*
G03X45402I2202J-1387D01*
G01Y116288D01*
X49412Y120298D01*
X50998D01*
Y120000D01*
G03X52400Y118598I1402J0D01*
G01X56000D01*
G03X57402Y120000I0J1402D01*
G01Y120298D01*
X64388D01*
X64698Y119988D01*
Y106675D01*
G02X64245Y106279I-400J0D01*
G03X62513Y105902I-346J-2579D01*
G01X57402D01*
Y106200D01*
G03X56000Y107602I-1402J0D01*
G01X53149D01*
G02X52871Y108290I-1J400D01*
G03X53302Y109300I-971J1011D01*
G01Y114300D01*
G03X51900Y115702I-1402J0D01*
G01X48300D01*
G03X46898Y114300I0J-1402D01*
G01Y109300D01*
G03X48300Y107898I1402J0D01*
G01X51151D01*
G02X51429Y107210I1J-400D01*
G03X50998Y106200I971J-1011D01*
G01Y104781D01*
G02X50316Y104498I-400J0D01*
G01X49112Y105702D01*
X38902D01*
Y106000D01*
G03X37500Y107402I-1402J0D01*
G01X32500D01*
G03X31098Y106000I0J-1402D01*
G01Y101000D01*
G03X32500Y99598I1402J0D01*
G01X37500D01*
G03X38902Y101000I0J1402D01*
G01Y101298D01*
X47288D01*
X47598Y100988D01*
Y98188D01*
X50488Y95298D01*
X53701D01*
G02X54033Y94677I-1J-400D01*
G03X53798Y93900I1167J-777D01*
G01Y93602D01*
X53288D01*
X50398Y90712D01*
Y82387D01*
G03X50303Y82223I2203J-1386D01*
G02X49597I-353J187D01*
G03X45070Y79659I-2297J-1223D01*
G01X45098Y79612D01*
Y78302D01*
X44800D01*
G03X43398Y76900I0J-1402D01*
G01Y73300D01*
G03X44800Y71898I1402J0D01*
G01X49800D01*
G03X50810Y72329I-1J1402D01*
G02X51498Y72051I288J-277D01*
G01Y69949D01*
G02X50810Y69671I-400J-1D01*
G03X49800Y70102I-1011J-971D01*
G01X44800D01*
G03X43398Y68700I0J-1402D01*
G01Y65594D01*
G02X42892Y65208I-400J0D01*
G03X40859Y64930I-693J-2508D01*
G01X40812Y64902D01*
X40122D01*
G02X39763Y65477I0J400D01*
G03X39904Y66091I-1260J613D01*
G01Y73965D01*
G03X38503Y75366I-1401J0D01*
G01X38202D01*
Y80912D01*
X35312Y83802D01*
X30512D01*
X28698Y85616D01*
G02X28981Y86298I283J282D01*
G01X30598D01*
Y86000D01*
G03X32000Y84598I1402J0D01*
G01X37000D01*
G03X38402Y86000I0J1402D01*
G01Y91000D01*
G03X37000Y92402I-1402J0D01*
G01X32000D01*
G03X30598Y91000I0J-1402D01*
G01Y90702D01*
X29612D01*
X26012Y94302D01*
X24002D01*
Y94600D01*
G03X22600Y96002I-1402J0D01*
G01X17600D01*
G03X16198Y94600I0J-1402D01*
G01Y89600D01*
G03X17600Y88198I1402J0D01*
G01X22600D01*
G03X24002Y89600I0J1402D01*
G01Y89602D01*
G02X24343Y89744I200J0D01*
G01X27002Y87084D01*
G02X26719Y86402I-283J-282D01*
G01X22204D01*
G03Y81998I-2004J-2202D01*
G01X26088D01*
X28688Y79398D01*
X33488D01*
X33798Y79088D01*
Y75366D01*
X33385D01*
G03X31984Y73965I0J-1401D01*
G01Y71796D01*
G02X31301Y71513I-400J0D01*
G01X26057Y76756D01*
X17660D01*
Y77114D01*
G03X16259Y78516I-1402J0D01*
G01X11141D01*
G03X9740Y77114I0J-1401D01*
G01Y71996D01*
G03X11141Y70594I1402J0D01*
G01X16259D01*
G03X17660Y71996I0J1401D01*
G01Y72354D01*
X24233D01*
X28798Y67788D01*
Y59788D01*
X31688Y56898D01*
X32351D01*
G02X32629Y56210I1J-400D01*
G03X32198Y55200I971J-1011D01*
G01Y54902D01*
X26002D01*
Y55200D01*
G03X24600Y56602I-1402J0D01*
G01X19600D01*
G03X18198Y55200I0J-1402D01*
G01Y50200D01*
G03X18243Y49851I1402J3D01*
G01X18249Y49827D01*
Y49602D01*
X17990D01*
G02X17593Y50046I0J400D01*
G03X17602Y50200I-1393J159D01*
G01Y55200D01*
G03X16200Y56602I-1402J0D01*
G01X11200D01*
G03X9798Y55200I0J-1402D01*
G01Y54902D01*
X8388D01*
X5498Y52012D01*
Y31187D01*
G03X5194Y30499I2203J-1385D01*
G01X5153Y30353D01*
X4801D01*
Y65020D01*
G02X5484Y65303I400J0D01*
G01X7488Y63298D01*
X9740D01*
Y62941D01*
G03X11141Y61540I1401J0D01*
G01X16259D01*
G03X17660Y62941I0J1401D01*
G01Y68059D01*
G03X16259Y69460I-1401J0D01*
G01X11141D01*
G03X9740Y68059I0J-1401D01*
G01Y67702D01*
X9312D01*
X9002Y68012D01*
Y80888D01*
X9312Y81198D01*
X11012D01*
X13902Y84088D01*
Y88198D01*
X14200D01*
G03X15602Y89600I0J1402D01*
G01Y94600D01*
G03X14200Y96002I-1402J0D01*
G01X9200D01*
G03X7798Y94600I0J-1402D01*
G01Y89600D01*
G03X9200Y88198I1402J0D01*
G01X9498D01*
Y85912D01*
X9188Y85602D01*
X7488D01*
X5484Y83597D01*
G02X4801Y83880I-283J283D01*
G01Y155199D01*
X155199D01*
Y4801D01*
X4801D01*
G37*
G36*
G01X70812Y23002D02*
X70712Y23102D01*
X62502D01*
Y50712D01*
X59138Y54075D01*
X59125Y54129D01*
G03X58802Y54887I-2525J-628D01*
G01Y57388D01*
X60712Y59298D01*
X63798D01*
Y59000D01*
G03X65200Y57598I1402J0D01*
G01X65498D01*
Y55202D01*
X65200D01*
G03X63798Y53800I0J-1402D01*
G01Y48800D01*
G03X65200Y47398I1402J0D01*
G01X70200D01*
G03X71602Y48800I0J1402D01*
G01Y53800D01*
G03X70200Y55202I-1402J0D01*
G01X69902D01*
Y57598D01*
X70200D01*
G03X71602Y59000I0J1402D01*
G01Y64000D01*
G03X70200Y65402I-1402J0D01*
G01X65200D01*
G03X63798Y64000I0J-1402D01*
G01Y63702D01*
X63052D01*
G02X62686Y64261I1J400D01*
G03X59333Y67716I-2386J1039D01*
G01X59298Y67702D01*
X58637D01*
Y68004D01*
X58720Y68064D01*
G03X59302Y69200I-820J1137D01*
G01Y72800D01*
G03X57900Y74202I-1402J0D01*
G01X52900D01*
G03X51890Y73771I1J-1402D01*
G02X51202Y74049I-288J277D01*
G01Y76900D01*
G03X49800Y78302I-1402J0D01*
G01X49502D01*
Y79612D01*
X49530Y79659D01*
G03X49597Y79777I-2229J1343D01*
G02X50303I353J-187D01*
G03X54802Y82387I2297J1223D01*
G01Y87511D01*
X55014D01*
X55026Y87509D01*
G03X55200Y87498I175J1391D01*
G01X58051D01*
G02X58329Y86810I1J-400D01*
G03X57898Y85800I971J-1011D01*
G01Y80800D01*
G03X59300Y79398I1402J0D01*
G01X62900D01*
G03X64302Y80800I0J1402D01*
G01Y81098D01*
X78288D01*
X82188Y77198D01*
X83607D01*
G02X83890Y76516I0J-400D01*
G01X82198Y74824D01*
Y74812D01*
X80700Y73314D01*
Y55086D01*
X84388Y51398D01*
X90498D01*
Y51100D01*
G03X90929Y50090I1402J1D01*
G02X90651Y49402I-277J-288D01*
G01X87800D01*
G03X86398Y48000I0J-1402D01*
G01Y47702D01*
X84088D01*
X81198Y44812D01*
Y41087D01*
G03X83417Y37098I2202J-1387D01*
G02X83702Y36415I2J-400D01*
G01X82098Y34812D01*
Y23312D01*
X81788Y23002D01*
X70812D01*
G37*
%LPC*%
G75*
G36*
G01X121298Y145600D02*
Y150600D01*
G02X121800Y151102I502J0D01*
G01X126800D01*
G02X127302Y150600I0J-502D01*
G01Y145600D01*
G02X126800Y145098I-502J0D01*
G01X121800D01*
G02X121298Y145600I0J502D01*
G37*
G36*
G01X95498Y43000D02*
Y48000D01*
G02X96000Y48502I502J0D01*
G01X99600D01*
G02X100102Y48000I0J-502D01*
G01Y43000D01*
G02X99600Y42498I-502J0D01*
G01X96000D01*
G02X95498Y43000I0J502D01*
G37*
G36*
G01X88698Y18400D02*
Y30400D01*
G02X89200Y30902I502J0D01*
G01X97200D01*
G02X97702Y30400I0J-502D01*
G01Y18400D01*
G02X97200Y17898I-502J0D01*
G01X89200D01*
G02X88698Y18400I0J502D01*
G37*
G36*
G01X53598Y137100D02*
Y149100D01*
G02X54100Y149602I502J0D01*
G01X62100D01*
G02X62602Y149100I0J-502D01*
G01Y137100D01*
G02X62100Y136598I-502J0D01*
G01X54100D01*
G02X53598Y137100I0J502D01*
G37*
G36*
G01X55998Y109300D02*
Y114300D01*
G02X56500Y114802I502J0D01*
G01X60100D01*
G02X60602Y114300I0J-502D01*
G01Y109300D01*
G02X60100Y108798I-502J0D01*
G01X56500D01*
G02X55998Y109300I0J502D01*
G37*
G36*
G01Y128100D02*
Y133100D01*
G02X56500Y133602I502J0D01*
G01X60100D01*
G02X60602Y133100I0J-502D01*
G01Y128100D01*
G02X60100Y127598I-502J0D01*
G01X56500D01*
G02X55998Y128100I0J502D01*
G37*
G36*
G01X73098Y10700D02*
Y15700D01*
G02X73600Y16202I502J0D01*
G01X78600D01*
G02X79102Y15700I0J-502D01*
G01Y10700D01*
G02X78600Y10198I-502J0D01*
G01X73600D01*
G02X73098Y10700I0J502D01*
G37*
G36*
G01X31998Y109400D02*
Y114400D01*
G02X32500Y114902I502J0D01*
G01X37500D01*
G02X38002Y114400I0J-502D01*
G01Y109400D01*
G02X37500Y108898I-502J0D01*
G01X32500D01*
G02X31998Y109400I0J502D01*
G37*
G36*
G01X39898Y86000D02*
Y91000D01*
G02X40400Y91502I502J0D01*
G01X45400D01*
G02X45902Y91000I0J-502D01*
G01Y86000D01*
G02X45400Y85498I-502J0D01*
G01X40400D01*
G02X39898Y86000I0J502D01*
G37*
G36*
G01X15502Y99700D02*
G02X14100Y98298I-1402J0D01*
G01X9100D01*
G02X7698Y99700I0J1402D01*
G01Y104700D01*
G02X9100Y106102I1402J0D01*
G01X9398D01*
Y109698D01*
X9100D01*
G02X7698Y111100I0J1402D01*
G01Y116100D01*
G02X9100Y117502I1402J0D01*
G01X14100D01*
G02X15502Y116100I0J-1402D01*
G01Y111100D01*
G02X14100Y109698I-1402J0D01*
G01X13802D01*
Y106102D01*
X14100D01*
G02X15502Y104700I0J-1402D01*
G01Y99700D01*
G37*
G36*
G01X26198Y99688D02*
X25888Y99998D01*
X23902D01*
Y99700D01*
G02X22500Y98298I-1402J0D01*
G01X17500D01*
G02X16098Y99700I0J1402D01*
G01Y104700D01*
G02X17500Y106102I1402J0D01*
G01X22500D01*
G02X23902Y104700I0J-1402D01*
G01Y104402D01*
X27712D01*
X30602Y101512D01*
Y97987D01*
G02X26198I-2202J-1387D01*
G01Y99688D01*
G37*
G36*
G01X153102Y61100D02*
G02X151700Y59698I-1402J0D01*
G01X146700D01*
G02X145298Y61100I0J1402D01*
G01Y66100D01*
G02X146700Y67502I1402J0D01*
G01X146998D01*
Y77898D01*
X146700D01*
G02X145298Y79300I0J1402D01*
G01Y84300D01*
G02X146700Y85702I1402J0D01*
G01X151700D01*
G02X153102Y84300I0J-1402D01*
G01Y79300D01*
G02X151700Y77898I-1402J0D01*
G01X151402D01*
Y67502D01*
X151700D01*
G02X153102Y66100I0J-1402D01*
G01Y61100D01*
G37*
G36*
G01X143002Y71688D02*
X140112Y68798D01*
X136512D01*
X136202Y68488D01*
Y47688D01*
X133312Y44798D01*
X129443D01*
Y41094D01*
G02X128042Y39693I-1402J0D01*
G01X121742D01*
G02X120341Y41094I0J1402D01*
G01Y52906D01*
G02X121742Y54307I1401J-1D01*
G01X128042D01*
G02X129443Y52906I-1J-1402D01*
G01Y49202D01*
X131488D01*
X131798Y49512D01*
Y70312D01*
X134688Y73202D01*
X138288D01*
X138598Y73512D01*
Y77898D01*
X138300D01*
G02X136898Y79300I0J1402D01*
G01Y79598D01*
X134487D01*
G02Y84002I-1387J2202D01*
G01X136898D01*
Y84300D01*
G02X138300Y85702I1402J0D01*
G01X143300D01*
G02X144702Y84300I0J-1402D01*
G01Y79300D01*
G02X143300Y77898I-1402J0D01*
G01X143002D01*
Y71688D01*
G37*
G36*
G01X148312Y58302D02*
X151202Y55412D01*
Y50702D01*
X151500D01*
G02X152902Y49300I0J-1402D01*
G01Y44300D01*
G02X151500Y42898I-1402J0D01*
G01X151202D01*
Y33802D01*
X151500D01*
G02X152902Y32400I0J-1402D01*
G01Y27400D01*
G02X151500Y25998I-1402J0D01*
G01X146500D01*
G02X145098Y27400I0J1402D01*
G01Y32400D01*
G02X146500Y33802I1402J0D01*
G01X146798D01*
Y42898D01*
X146500D01*
G02X145098Y44300I0J1402D01*
G01Y49300D01*
G02X146500Y50702I1402J0D01*
G01X146798D01*
Y53588D01*
X146488Y53898D01*
X141488D01*
X138598Y56788D01*
Y59698D01*
X138300D01*
G02X136898Y61100I0J1402D01*
G01Y66100D01*
G02X138300Y67502I1402J0D01*
G01X143300D01*
G02X144702Y66100I0J-1402D01*
G01Y61100D01*
G02X143300Y59698I-1402J0D01*
G01X143002D01*
Y58612D01*
X143312Y58302D01*
X148312D01*
G37*
G36*
G01X28402Y21300D02*
G02X27000Y19898I-1402J0D01*
G01X22000D01*
G02X20598Y21300I0J1402D01*
G01Y26300D01*
G02X22000Y27702I1402J0D01*
G01X22298D01*
Y33298D01*
X22000D01*
G02X20598Y34700I0J1402D01*
G01Y39700D01*
G02X22000Y41102I1402J0D01*
G01X27000D01*
G02X28402Y39700I0J-1402D01*
G01Y34700D01*
G02X27000Y33298I-1402J0D01*
G01X26702D01*
Y27702D01*
X27000D01*
G02X28402Y26300I0J-1402D01*
G01Y21300D01*
G37*
G36*
G01X20002Y10700D02*
G02X18600Y9298I-1402J0D01*
G01X13600D01*
G02X12198Y10700I0J1402D01*
G01Y15700D01*
G02X13600Y17102I1402J0D01*
G01X13898D01*
Y19898D01*
X13600D01*
G02X12198Y21300I0J1402D01*
G01Y26300D01*
G02X13600Y27702I1402J0D01*
G01X18600D01*
G02X20002Y26300I0J-1402D01*
G01Y21300D01*
G02X18600Y19898I-1402J0D01*
G01X18302D01*
Y17102D01*
X18600D01*
G02X20002Y15700I0J-1402D01*
G01Y10700D01*
G37*
G36*
G01X52560Y10641D02*
G02X51159Y9240I-1401J0D01*
G01X46041D01*
G02X44640Y10641I0J1401D01*
G01Y15759D01*
G02X46041Y17160I1401J0D01*
G01X51159D01*
G02X52560Y15759I0J-1401D01*
G01Y15402D01*
X63798D01*
Y15700D01*
G02X65200Y17102I1402J0D01*
G01X70200D01*
G02X71602Y15700I0J-1402D01*
G01Y10700D01*
G02X70200Y9298I-1402J0D01*
G01X65200D01*
G02X63798Y10700I0J1402D01*
G01Y10998D01*
X52560D01*
Y10641D01*
G37*
G36*
G01X43506D02*
G02X42104Y9240I-1402J1D01*
G01X36986D01*
G02X35584Y10641I-1J1401D01*
G01Y10998D01*
X28402D01*
Y10700D01*
G02X27000Y9298I-1402J0D01*
G01X22000D01*
G02X20598Y10700I0J1402D01*
G01Y15700D01*
G02X22000Y17102I1402J0D01*
G01X27000D01*
G02X28402Y15700I0J-1402D01*
G01Y15402D01*
X35584D01*
Y15759D01*
G02X36986Y17160I1402J-1D01*
G01X42104D01*
G02X43506Y15759I1J-1401D01*
G01Y10641D01*
G37*
G36*
G01X64698Y72200D02*
Y77200D01*
G02X65200Y77702I502J0D01*
G01X70200D01*
G02X70702Y77200I0J-502D01*
G01Y72200D01*
G02X70200Y71698I-502J0D01*
G01X65200D01*
G02X64698Y72200I0J502D01*
G37*
G36*
G01Y35100D02*
Y40100D01*
G02X65200Y40602I502J0D01*
G01X70200D01*
G02X70702Y40100I0J-502D01*
G01Y35100D01*
G02X70200Y34598I-502J0D01*
G01X65200D01*
G02X64698Y35100I0J502D01*
G37*
G36*
G01X80002Y59000D02*
G02X78600Y57598I-1402J0D01*
G01X73600D01*
G02X72198Y59000I0J1402D01*
G01Y64000D01*
G02X73600Y65402I1402J0D01*
G01X73898D01*
Y70798D01*
X73600D01*
G02X72198Y72200I0J1402D01*
G01Y77200D01*
G02X73600Y78602I1402J0D01*
G01X78600D01*
G02X80002Y77200I0J-1402D01*
G01Y72200D01*
G02X78600Y70798I-1402J0D01*
G01X78302D01*
Y65402D01*
X78600D01*
G02X80002Y64000I0J-1402D01*
G01Y59000D01*
G37*
G36*
G01Y35100D02*
G02X78600Y33698I-1402J0D01*
G01X73600D01*
G02X72198Y35100I0J1402D01*
G01Y40100D01*
G02X73600Y41502I1402J0D01*
G01X73898D01*
Y47398D01*
X73600D01*
G02X72198Y48800I0J1402D01*
G01Y53800D01*
G02X73600Y55202I1402J0D01*
G01X78600D01*
G02X80002Y53800I0J-1402D01*
G01Y48800D01*
G02X78600Y47398I-1402J0D01*
G01X78302D01*
Y41502D01*
X78600D01*
G02X80002Y40100I0J-1402D01*
G01Y35100D01*
G37*
G54D25*
X20000Y140000D03*
X140000Y20000D03*
%LPD*%
G75*
G54D10*
X16100Y13200D03*
Y37200D03*
Y23800D03*
X13700Y52700D03*
X11600Y102200D03*
X20000D03*
X11700Y92100D03*
X20100D03*
X11600Y124200D03*
X20000D03*
Y113600D03*
X11600D03*
X24500Y13200D03*
Y37200D03*
Y23800D03*
X22100Y52700D03*
X36100D03*
X44500D03*
X35000Y103500D03*
X34500Y88500D03*
X42900D03*
X35000Y111900D03*
X67700Y13200D03*
X76100D03*
Y37600D03*
X67700D03*
Y61500D03*
X76100D03*
X67700Y51300D03*
X76100D03*
Y74700D03*
X67700D03*
X72300Y148100D03*
X94700Y133400D03*
X103100D03*
X80700Y148100D03*
X94500D03*
X102900D03*
X139400Y133200D03*
Y122100D03*
X115900Y148100D03*
X124300D03*
X149000Y29900D03*
X140600D03*
X149200Y63600D03*
X140800D03*
X149000Y46800D03*
X140600D03*
X140800Y81800D03*
X149200D03*
X147800Y133200D03*
Y122100D03*
G54D20*
X72300Y133400D03*
X80200D03*
G54D11*
X7700Y29800D03*
X42200Y62700D03*
X47300Y81000D03*
X28400Y96600D03*
X27300Y112400D03*
X44000Y128400D03*
X43200Y109000D03*
X79150Y25950D03*
X60300Y20900D03*
X53200Y43900D03*
X60300Y65300D03*
X56600Y53500D03*
X52600Y81000D03*
X63900Y103700D03*
X83400Y39700D03*
X84900Y13000D03*
X94700Y65300D03*
X87800Y91400D03*
X85400Y118900D03*
X103200Y108600D03*
X88100Y112800D03*
X88000Y133400D03*
X129900Y100200D03*
X133100Y81800D03*
X129900Y113300D03*
G54D21*
X106900Y47000D03*
X124892D03*
G54D12*
X13700Y65500D03*
Y74555D03*
X39545Y13200D03*
X48600D03*
G54D22*
X115876Y75307D03*
G54D13*
X20000Y140000D03*
X140000Y20000D03*
G54D23*
G01X42900Y85298D02*
Y88500D01*
G01D02*
Y91702D01*
G01X39698Y88500D02*
X42900D01*
G01D02*
X46102D01*
G01X35000Y108698D02*
Y111900D01*
G01D02*
Y115102D01*
G01X31798Y111900D02*
X35000D01*
G01D02*
X38202D01*
G01X34500Y131500D02*
X40900D01*
X44000Y128400D01*
G01X34500Y143100D02*
Y131500D01*
G01X76100Y9998D02*
Y13200D01*
G01X67700Y34398D02*
Y37600D01*
G01D02*
Y40802D01*
G01X64498Y37600D02*
X67700D01*
G01D02*
X70902D01*
G01X76100Y13200D02*
Y16402D01*
G01X72898Y13200D02*
X76100D01*
G01D02*
X79302D01*
G01X60300Y65300D02*
X57400D01*
X55400Y67300D01*
Y71000D01*
G01X67700Y71498D02*
Y74700D01*
G01D02*
Y77902D01*
G01X64498Y74700D02*
X67700D01*
G01D02*
X70902D01*
G01X58300Y108598D02*
Y111800D01*
G01D02*
Y115002D01*
G01X55798Y111800D02*
X58300D01*
G01D02*
X60802D01*
G01X58300Y127398D02*
Y130600D01*
G01D02*
Y133802D01*
G01X55798Y130600D02*
X58300D01*
G01D02*
X60802D01*
G01X58100Y136398D02*
Y143100D01*
G01D02*
Y149802D01*
G01X53398Y143100D02*
X58100D01*
G01D02*
X62802D01*
G01X93200Y17698D02*
Y24400D01*
G01D02*
Y31102D01*
G01X88498Y24400D02*
X93200D01*
G01D02*
X97902D01*
G01X97800Y42298D02*
Y45500D01*
G01D02*
Y48702D01*
G01X95298Y45500D02*
X97800D01*
G01D02*
X100302D01*
G01X97200Y75300D02*
Y67800D01*
X94700Y65300D01*
G01X97200Y75300D02*
X102951D01*
X102958Y75307D01*
X115876D01*
G01X147800Y133200D02*
Y138100D01*
X145800Y140100D01*
X130800D01*
X124100Y133400D01*
X103100D01*
G01X80200D02*
Y140000D01*
X82200Y142000D01*
X101100D01*
X103100Y140000D01*
Y133400D01*
G01X88000D02*
X80200D01*
G01X147800Y122100D02*
Y97900D01*
X142000Y92100D01*
X117876D01*
X115876Y90100D01*
Y75307D01*
G01X124300Y144898D02*
Y148100D01*
G01D02*
Y151302D01*
G01X121098Y148100D02*
X124300D01*
G01D02*
X127502D01*
G01X147800Y133200D02*
Y122100D01*
G54D14*
X44072Y35444D03*
G54D24*
G01X16100Y37200D02*
X16000Y37300D01*
Y45800D01*
X17600Y47400D01*
X48700D01*
X50300Y49000D01*
Y57600D01*
X47300Y60600D01*
Y66900D01*
G01X13700Y52700D02*
X9300D01*
X7700Y51100D01*
Y29800D01*
G01X16100Y23800D02*
Y13200D01*
G01X11700Y92100D02*
Y85000D01*
X10100Y83400D01*
X8400D01*
X6800Y81800D01*
Y67100D01*
X8400Y65500D01*
X13700D01*
G01X44500Y52700D02*
Y57500D01*
X42900Y59100D01*
X32600D01*
X31000Y60700D01*
Y68700D01*
X25145Y74555D01*
X13700D01*
G01X11600Y113600D02*
Y102200D01*
G01X30400Y123400D02*
X26600D01*
X25000Y125000D01*
Y129900D01*
X23400Y131500D01*
X13200D01*
X11600Y129900D01*
Y124200D01*
G01X44072Y35444D02*
Y39303D01*
X44100Y39331D01*
Y42100D01*
X45900Y43900D01*
X53200D01*
G01X24500Y13200D02*
X39545D01*
G01X24500Y23800D02*
Y37200D01*
G01X22100Y52700D02*
X36100D01*
G01X35944Y70028D02*
X36000Y70084D01*
Y80000D01*
X34400Y81600D01*
X29600D01*
X27000Y84200D01*
X20200D01*
G01X42200Y62700D02*
X38035D01*
X35944Y64791D01*
Y70028D01*
G01X34500Y88500D02*
X28700D01*
X25100Y92100D01*
X20100D01*
G01X20000Y102200D02*
X26800D01*
X28400Y100600D01*
Y96600D01*
G01X30400Y123400D02*
Y118000D01*
X27300Y114900D01*
Y112400D01*
G01X74000Y97500D02*
X51400D01*
X49800Y99100D01*
Y101900D01*
X48200Y103500D01*
X35000D01*
G01X20000Y113600D02*
Y124200D01*
G01X43200Y109000D02*
Y117200D01*
X48500Y122500D01*
X54200D01*
G01X56600Y53500D02*
X60300Y49800D01*
Y20900D01*
G01D02*
X69800D01*
X69900Y20800D01*
X82700D01*
X84300Y22400D01*
Y33900D01*
X85900Y35500D01*
X115200D01*
X116800Y33900D01*
Y24400D01*
G01X48600Y13200D02*
X67700D01*
G01X76100Y37600D02*
Y51300D01*
G01X67700Y61500D02*
Y51300D01*
G01X56600Y53500D02*
Y58300D01*
X59800Y61500D01*
X67700D01*
G01X76100Y74700D02*
Y61500D01*
G01X52600Y81000D02*
Y89800D01*
X54200Y91400D01*
X57000D01*
G01X65200D02*
X87800D01*
G01X47300Y81000D02*
Y75100D01*
G01X89100Y79400D02*
X83100D01*
X79200Y83300D01*
X61100D01*
G01X94700Y133400D02*
Y128200D01*
X93100Y126600D01*
X73400D01*
X71800Y125000D01*
Y120900D01*
G01X74000Y105700D02*
X73900Y105800D01*
X68500D01*
X66900Y107400D01*
Y120900D01*
X65300Y122500D01*
X54200D01*
G01X88100Y112800D02*
X75900D01*
G01X54200Y103700D02*
X63900D01*
G01X72300Y148100D02*
Y133400D01*
G01X89600Y45500D02*
X85000D01*
X83400Y43900D01*
Y39700D01*
G01X89100Y71200D02*
Y61500D01*
X90700Y59900D01*
X103300D01*
X106900Y56300D01*
Y47000D01*
G01X89100Y79400D02*
Y76100D01*
X88200Y75200D01*
X85688D01*
X84400Y73912D01*
Y73900D01*
X82902Y72402D01*
Y55998D01*
X85300Y53600D01*
X93700D01*
G01X99100Y93500D02*
Y86700D01*
X97500Y85100D01*
X90700D01*
X89100Y83500D01*
Y79400D01*
G01X99100Y93500D02*
X111400D01*
X113000Y95100D01*
Y101000D01*
X112900Y101100D01*
G01X85400Y118900D02*
X83400Y120900D01*
X80000D01*
G01X95000Y113300D02*
Y101600D01*
G01D02*
X82100D01*
G01X103100Y117400D02*
X113700D01*
G01X103200Y108600D02*
Y101600D01*
G01X88100Y112800D02*
Y115700D01*
X89700Y117300D01*
X93700D01*
X95000Y118600D01*
Y121500D01*
G01X115900Y148100D02*
X102900D01*
G01X94500D02*
X80700D01*
G01X140600Y29900D02*
X130800D01*
X125300Y24400D01*
X116800D01*
G01X140800Y81800D02*
Y72600D01*
X139200Y71000D01*
X135600D01*
X134000Y69400D01*
Y48600D01*
X132400Y47000D01*
X124892D01*
G01X121000Y97000D02*
X126700D01*
X129900Y100200D01*
G01X133100Y81800D02*
X140800D01*
G01X139400Y122100D02*
Y106700D01*
X137800Y105100D01*
X124900D01*
X124800Y105200D01*
X121000D01*
G01X139400Y133200D02*
X130900D01*
X129300Y131600D01*
Y123100D01*
X127700Y121500D01*
X121800D01*
G01Y113300D02*
X115400D01*
X113800Y114900D01*
Y117300D01*
X113700Y117400D01*
G01X129900Y113300D02*
X121800D01*
G01X149000Y29900D02*
Y46800D01*
G01X140600D02*
Y29900D01*
G01X149200Y63600D02*
Y81800D01*
G01X149000Y46800D02*
Y54500D01*
X147400Y56100D01*
X142400D01*
X140800Y57700D01*
Y63600D01*
G54D15*
X47300Y66900D03*
Y75100D03*
X55400Y71000D03*
X74000Y97500D03*
Y105700D03*
X89100Y71200D03*
X82100Y101600D03*
X97200Y75300D03*
X89100Y79400D03*
X103100Y117400D03*
X95000Y121500D03*
Y113300D03*
X112900Y101100D03*
X121000Y97000D03*
X113700Y117400D03*
X121800Y113300D03*
Y121500D03*
X121000Y105200D03*
G54D16*
X35944Y70028D03*
G54D17*
X20200Y84200D03*
G54D18*
X34500Y131500D03*
X30400Y123400D03*
X38600D03*
X54200Y103700D03*
X61100Y83300D03*
X65200Y91400D03*
X57000D03*
X54200Y122500D03*
X58300Y130600D03*
X50100D03*
X75900Y112800D03*
X71800Y120900D03*
X58300Y111800D03*
X50100D03*
X93700Y53600D03*
X89600Y45500D03*
X97800D03*
X99100Y93500D03*
X103200Y101600D03*
X95000D03*
X80000Y120900D03*
G54D19*
X34500Y143100D03*
X58100D03*
X93200Y24400D03*
X116800D03*
M02*
